<svg height="1543" viewBox="0 0 1542 1543" width="1542" xmlns="http://www.w3.org/2000/svg"><path d="m1541.57 1541.57h-1541.57v-1541.57h1541.57z" fill="#fff"/><path d="m1541.57 834.99v-834.3h-1541.57v1541.56h1541.57v-449.76c-3.44 0 0-257.5 0-257.5z" fill="#006fcf"/><path d="m1352.73 749.15h116.74v-271.23h-127.04v37.77l-24.03-37.77h-109.87v48.07l-20.6-48.07h-202.56c-6.87 0-13.74 3.43-20.6 3.43-6.87 0-10.3 3.44-17.17 6.87s-10.3 3.43-17.17 6.87v-17.17h-580.23l-17.17 44.63-17.16-44.63h-137.34v48.07l-20.6-48.07h-109.86l-48.07 116.73v154.5h78.97l13.73-37.76h27.47l13.73 37.76h604.27v-34.33l24.03 34.33h168.23v-20.6c3.44 3.44 10.3 3.44 13.74 6.87 3.43 3.43 10.3 3.43 13.73 6.87 6.87 3.43 13.73 3.43 20.6 3.43h123.6l13.73-37.77h27.47l13.73 37.77h168.24v-34.33zm188.84 343.34v-254.07h-944.17l-24.03 34.33-24.04-34.33h-274.66v271.23h274.66l24.04-34.33 24.03 34.33h171.67v-58.36h-6.87c24.03 0 44.63-3.44 61.8-10.3v72.1h123.6v-34.34l24.03 34.34h511.57c20.6-6.87 41.2-10.3 58.37-20.6z" fill="#fff"/><path d="m1483.2 1027.25c13.73 0 20.6-6.86 17.17-20.6 0-10.3-6.87-17.16-17.17-17.16h-41.2c-34.33 0-54.93-17.17-54.93-51.5 0-30.9 24.03-54.94 61.8-54.94h92.7l-17.17 37.77h-78.97c-10.3 0-17.16 6.87-17.16 17.17s6.86 17.16 17.16 17.16h41.2c34.34 0 54.94 17.17 54.94 51.5 0 34.34-24.04 58.37-61.8 58.37h-89.27v-37.77zm-168.23 0c10.3 0 20.6-6.86 17.16-20.6 0-10.3-6.86-17.16-17.16-17.16h-41.2c-34.34 0-54.94-17.17-54.94-51.5 0-30.9 24.04-54.94 61.8-54.94h92.7l-17.16 37.77h-78.97c-10.3 0-17.17 6.87-17.17 17.17s6.87 17.16 17.17 17.16h41.2c34.33 0 54.93 17.17 54.93 51.5 0 34.34-24.03 58.37-61.8 58.37h-89.26v-37.77zm-120.17-113.3h-103v34.34h99.57v37.76h-99.57v37.77h103v37.77h-144.2v-181.97h144.2zm-288.4 147.64h-41.2v-181.97h96.13c37.77 0 61.8 24.03 61.8 58.37 0 27.46-17.16 48.06-48.06 54.93l61.8 68.67h-51.5l-54.94-65.24h-20.6zm54.93-144.2-51.5-3.44v44.64h51.5c17.17 0 24.04-10.3 24.04-20.6s-6.87-20.6-24.04-20.6zm-281.53-37.77 99.57-3.43c37.76 0 61.8 27.46 61.8 61.8 0 37.76-27.47 61.8-65.24 61.8h-54.93v61.8h-41.2zm120.17 61.8c0-13.73-10.3-24.03-27.47-24.03h-51.5v48.06h54.93c17.17 0 24.04-10.3 24.04-24.03zm-181.97 120.17-44.63-61.8-44.64 58.36h-51.5l72.1-89.26-72.1-89.27h51.5l44.64 58.37 44.63-58.37h51.5l-72.1 89.27 72.1 92.7zm-154.5-147.64h-103v34.34h99.57v37.76h-99.57v37.77h103v37.77h-144.2v-181.97h144.2zm834.3-319.3-6.87-13.73v123.6h-41.2v-181.97h54.94l65.23 103 10.3 17.17v-120.17h41.2v181.97h-51.5zm-106.43 109.87-17.17-37.77h-89.27l-17.16 37.77h-44.64l78.97-181.97h54.93l78.97 181.97zm-72.1-113.3-17.17 41.2h61.8l-17.17-41.2-13.73-37.77zm-202.57 24.03v-3.43c0-51.5 30.9-89.27 85.83-89.27h48.07v37.77h-44.63c-30.9 0-48.07 20.6-48.07 51.5v3.43c0 30.9 17.17 51.5 48.07 51.5h10.3l-17.17 37.77c-51.5 0-82.4-34.33-82.4-89.27zm-72.1-89.26h41.2v178.53h-41.2zm-144.2 178.53h-41.2v-181.97h96.13c37.77 0 61.8 24.04 61.8 58.37 0 27.47-17.16 48.07-48.06 54.93l61.8 68.67h-51.5l-54.94-65.23h-20.6zm54.93-144.2-51.5-3.43v44.63h51.5c17.17 0 24.04-10.3 24.04-20.6s-6.87-20.6-24.04-20.6zm-127.03-3.43h-103v34.33h99.57v37.77h-99.57v37.76h103v37.77h-144.2v-181.97h144.2zm-360.5 0v147.63h-41.2v-181.97h68.67l41.2 123.6 41.2-123.6h68.66v181.97h-41.2v-147.63l-51.5 147.63h-37.76zm-116.73 109.86h-89.27l-17.17 37.77h-44.63l78.97-181.97h51.5l78.96 181.97h-44.63zm-58.37-75.53-17.17 41.2h61.8l-17.16-41.2-13.74-37.77z" fill="#006fcf" fill-rule="evenodd"/></svg>