<svg width="100" height="33" viewBox="0 0 100 33" fill="none" xmlns="http://www.w3.org/2000/svg">
<g clip-path="url(#clip0_846_1336)">
<path d="M14.3334 32.6836C14.1531 32.6811 13.9759 32.6368 13.8155 32.5544L0.533742 25.0641C0.372816 24.9735 0.238693 24.842 0.144962 24.6829C0.0512315 24.5238 0.00122307 24.3427 3.63709e-06 24.1581V1.13708C-0.000357483 1.00104 0.026176 0.866274 0.0780784 0.740525C0.129981 0.614776 0.206228 0.500526 0.302437 0.404346C0.398646 0.308166 0.512917 0.231952 0.638682 0.180086C0.764446 0.128221 0.899223 0.101727 1.03526 0.102128H27.6152C27.7513 0.101726 27.8861 0.12823 28.0119 0.180115C28.1376 0.231999 28.2519 0.308241 28.3481 0.404453C28.4443 0.500666 28.5206 0.614951 28.5725 0.740736C28.6244 0.86652 28.6509 1.00132 28.6505 1.13739V24.1581C28.6492 24.3427 28.5992 24.5237 28.5054 24.6827C28.4117 24.8418 28.2776 24.9733 28.1167 25.0638L14.8347 32.5544C14.673 32.6514 14.5112 32.6836 14.3331 32.6836H14.3334ZM2.08693 23.5596L14.3331 30.4511L26.5796 23.5596V2.18845H2.08693V23.5593V23.5596Z" fill="black"/>
<path d="M14.3334 22.2653C14.1531 22.2628 13.9758 22.2185 13.8155 22.1359L9.60942 19.7578C9.44852 19.6672 9.31441 19.5357 9.22068 19.3767C9.12695 19.2176 9.07693 19.0366 9.07568 18.852V14.4836H11.1623V18.2371L14.3334 20.0167L18.038 17.9298L19.0571 19.7413L14.8511 22.1198C14.6729 22.2167 14.5112 22.2653 14.3334 22.2653Z" fill="black"/>
<path d="M14.3335 27.4745C14.1533 27.4719 13.9761 27.4277 13.8159 27.3453L5.06329 22.4109C4.9024 22.3204 4.76831 22.1889 4.67458 22.0298C4.58085 21.8708 4.53082 21.6898 4.52955 21.5052V10.2134C4.52911 10.0773 4.55558 9.94245 4.60745 9.81663C4.65931 9.69081 4.73555 9.57649 4.83176 9.48024C4.92798 9.384 5.04228 9.30773 5.16808 9.25583C5.29389 9.20392 5.42871 9.17741 5.5648 9.17781H18.4098V11.2647H6.60037V20.9064L14.301 25.2419L22.0016 20.9064V16.3927H24.1207V21.5052C24.1195 21.6898 24.0694 21.8708 23.9757 22.0298C23.882 22.1889 23.7479 22.3204 23.587 22.4109L14.835 27.3453C14.673 27.4423 14.5113 27.4745 14.3335 27.4745Z" fill="black"/>
<path d="M24.1207 12.4134H22.0338V6.71885H8.21826V4.63192H23.0693C23.2054 4.63152 23.3402 4.65802 23.466 4.7099C23.5918 4.76179 23.706 4.83803 23.8023 4.93424C23.8985 5.03045 23.9747 5.14474 24.0266 5.27052C24.0785 5.39631 24.105 5.53111 24.1046 5.66717V12.4134H24.1207ZM38.5487 14.5702C38.5487 10.1143 41.8608 6.68328 46.4119 6.68328C49.152 6.68328 51.5824 8.04164 52.8927 10.186L49.9143 11.9255C49.2471 10.7578 47.9368 10.0669 46.4119 10.0669C43.7432 10.0669 42.0037 11.8541 42.0037 14.5702C42.0037 17.2866 43.7432 19.0736 46.4119 19.0736C47.9368 19.0736 49.2712 18.3827 49.9143 17.2152L52.8927 18.9547C51.6061 21.0991 49.1757 22.4571 46.4119 22.4571C41.8608 22.4334 38.5487 19.0261 38.5487 14.5702ZM82.6772 19.0498V22.4094H72.4554V6.68298H82.6772V10.0429H76.0532V12.7356H81.8909V16.1429H76.0532V19.0258H82.6772V19.0498ZM65.6408 16.6669C67.38 15.7854 68.5474 14.0222 68.5474 12.0921C68.5474 9.08967 66.1411 6.68328 63.1626 6.68328H56.8721V22.4331H60.4699V17.2629H62.1857L65.1402 22.4331H69.0003L65.6408 16.6672V16.6669ZM63.1386 14.1173H60.4462V10.0669H63.1386C64.1155 10.0669 64.9259 10.9483 64.9259 12.0921C64.9259 13.2359 64.1155 14.1173 63.1386 14.1173ZM92.3751 6.68328H86.5851V22.3854H92.3751C96.6879 22.3854 100 18.9781 100 14.5225C100 10.0906 96.7119 6.68328 92.3751 6.68328ZM92.3751 19.0498H90.183V10.0669H92.3751C94.8295 10.0669 96.545 11.8538 96.545 14.5462C96.545 17.2389 94.8532 19.0498 92.3751 19.0498Z" fill="black"/>
</g>
<defs>
<clipPath id="clip0_846_1336">
<rect width="100" height="32.8267" fill="white"/>
</clipPath>
</defs>
</svg>
