<svg height="35.316" viewBox="0 0 216.514 35.316" width="216.514" xmlns="http://www.w3.org/2000/svg"><path d="m-67.545-481.881a17.658 17.658 0 0 1 17.658 17.658 17.658 17.658 0 0 1 -17.658 17.658 17.658 17.658 0 0 1 -17.655-17.658 17.658 17.658 0 0 1 17.658-17.658z" fill="#ef5713" transform="translate(85.203 481.881)"/><path d="m-65.783-460.336.716-1.681h-1.89zm-.308-3.45 1.024 1.768.754-1.768zm0 0 1.046-2.139h-2.276zm-5.76-2.139 2.259 4.4 2.271-4.4zm2.259 4.4-2.384 4.6h4.743l-1.132-2.213-1.227-2.389zm1.166-2.258 1.13 2.46.338-.692.866-1.768zm1.13 2.46-1.07 2.186h2.072l-1-2.186zm1.513.989-.511 1.2h1.347zm-1.445 3.41h1.947l-1.013-2.213-.939 2.213zm2.109 4.105-2.113-4.105-1.753 4.105zm1.719-4.105-.336-.482-1.209-1.731h3.092l-1.546 2.213zm-5.873-12.359 3.214-4.192h-5.641l2.426 4.192zm3.7 0h-3.7l1.953 3.361 1.748-3.361zm-6.278 3.361 2.577-3.361h-4.3l1.726 3.361zm0 0h-6.682l3.255 4.468 3.426-4.468zm-.125 9-2.127 4.105h5.118zm-6.776 0h6.776l-3.3-4.531-3.475 4.531zm8.341 7.45h3.864l-2.438-3.345zm9.392-10.86-.716-1.681h1.891l-1.174 1.681zm.309-3.45-1.025 1.768-.754-1.768zm0 0-1.046-2.139h2.276l-1.229 2.139zm5.76-2.139-2.259 4.4-2.271-4.4zm-2.259 4.4 2.384 4.6h-4.743l1.132-2.213 1.227-2.389zm-1.166-2.258-1.13 2.46-.338-.692-.866-1.768zm-1.13 2.46 1.07 2.186h-2.072l1-2.186zm-1.513.989.511 1.2h-1.347zm1.446 3.41h-1.948l1.012-2.213.939 2.213zm-2.109 4.105 2.113-4.105 1.753 4.105zm-1.719-10.97h.911l-.911-2.139-.912 2.139zm0 4.646.23-.4 1.435-2.479h-3.332l1.666 2.878zm0 6.317 1.88-4.105h-3.76l1.45 3.168.429.938zm5.873-16.464-3.214-4.192h5.64zm-3.7 0h3.7l-1.953 3.361-1.748-3.361zm6.279 3.361-2.577-3.361h4.3l-1.726 3.361zm0 0h6.682l-3.255 4.468-3.426-4.468zm.125 9 2.127 4.105h-5.118zm6.776 0h-6.776l3.3-4.531 3.475 4.531zm-8.341 7.45h-3.863l2.438-3.345 1.426 3.345zm-7.01-24h2.658l-2.658-3.466-2.659 3.466h2.657zm0 4.192h2.172l-2.172-4.192-2.172 4.192h2.17zm0 3.361h1.644l-.992-2.028-.652-1.333-1.645 3.361h1.643zm0 16.448.443-.864 1.275-2.481h-3.437zm0 4.318 3.146-4.318h-6.293l3.146 4.318z" fill="#fff" transform="translate(81.059 478.709)"/><g fill="#131845"><path d="m42.1-465.091h-3.8a2.212 2.212 0 0 0 -2.205 2.205v21.1h3.8a2.212 2.212 0 0 0 2.205-2.205zm6.345 0h12.871v3.895a2.116 2.116 0 0 1 -2.111 2.109h-6.9v2.99h7.5v3.895a2.116 2.116 0 0 1 -2.111 2.109h-5.384v6.171a2.148 2.148 0 0 1 -2.142 2.141h-3.862v-21.168a2.147 2.147 0 0 1 2.142-2.14zm-16.551 0h-3.794a2.212 2.212 0 0 0 -2.205 2.205v21.1h3.8a2.212 2.212 0 0 0 2.205-2.205v-21.1zm38.751 0h-3.859a2.147 2.147 0 0 0 -2.142 2.14v21.168h11.186a2.116 2.116 0 0 0 2.11-2.109v-3.895h-7.292v-17.3z" transform="translate(13.834 471.095)"/><path d="m405.356-442.5v-.008z" transform="translate(-229.937 456.588)"/><path d="m339.533-445.136s.006 0 0 0z" transform="translate(-187.652 458.276)"/><path d="m233.765-449.1h6.259a.835.835 0 0 1 .833.833v1.64a.835.835 0 0 1 -.833.833h-5.4a.908.908 0 0 0 -.906.906v2.95h6.311a.835.835 0 0 1 .833.833v1.64a.835.835 0 0 1 -.833.833h-6.311v2.95a.908.908 0 0 0 .906.905h5.4a.836.836 0 0 1 .833.833v1.639a.835.835 0 0 1 -.833.833h-6.259a3.367 3.367 0 0 1 -3.357-3.357v-10.913a3.367 3.367 0 0 1 3.357-3.357z" transform="translate(-117.55 460.819)"/><path d="m456.3-449.1h6.259a.836.836 0 0 1 .833.833v1.64a.836.836 0 0 1 -.833.833h-5.4a.908.908 0 0 0 -.906.906v2.95h6.311a.836.836 0 0 1 .833.833v1.64a.836.836 0 0 1 -.833.833h-6.311v2.95a.908.908 0 0 0 .906.905h5.4a.836.836 0 0 1 .833.833v1.639a.836.836 0 0 1 -.833.833h-6.259a3.366 3.366 0 0 1 -3.357-3.357v-10.913a3.367 3.367 0 0 1 3.357-3.358z" transform="translate(-260.508 460.819)"/><path d="m381.991-448.262v15.962a.835.835 0 0 0 .833.833h1.64a.835.835 0 0 0 .833-.833v-15.961a.835.835 0 0 0 -.833-.833h-1.64a.835.835 0 0 0 -.833.833z" transform="translate(-214.928 460.819)"/><path d="m343.2-448.262v15.962a.836.836 0 0 0 .833.833h1.639a.836.836 0 0 0 .833-.833v-6.186h1.717l3.759 6.4a1.515 1.515 0 0 0 1.2.619h1.8c.664 0 .829-.653.513-1.19l-3.711-6.319a5.3 5.3 0 0 0 3.063-4.787v-.052a5.294 5.294 0 0 0 -5.278-5.278h-5.536a.836.836 0 0 0 -.833.833zm3.306 6.51v-4.078h3.018a2.051 2.051 0 0 1 2.033 2.039 2.051 2.051 0 0 1 -2.033 2.039z" transform="translate(-190.007 460.819)"/><path d="m302.012-448.262v10.375.065.187a6.186 6.186 0 0 0 6.168 6.168 6.186 6.186 0 0 0 6.168-6.168v-10.627a.835.835 0 0 0 -.833-.833h-1.64a.835.835 0 0 0 -.833.833v10.375.065.2a2.873 2.873 0 0 1 -2.865 2.865 2.873 2.873 0 0 1 -2.865-2.865v-10.639a.835.835 0 0 0 -.833-.833h-1.64a.835.835 0 0 0 -.833.833z" transform="translate(-163.549 460.819)"/><path d="m408.308-449.1h-10.844a.835.835 0 0 0 -.833.833v1.64a.835.835 0 0 0 .833.833h3.769v13.494a.836.836 0 0 0 .833.833h1.639a.836.836 0 0 0 .833-.833v-13.49h3.769a.835.835 0 0 0 .833-.833v-1.64a.835.835 0 0 0 -.833-.833z" transform="translate(-224.333 460.819)"/><path d="m437.083-448.262v15.962a.835.835 0 0 0 .833.833h1.64a.835.835 0 0 0 .833-.833v-15.961a.835.835 0 0 0 -.833-.833h-1.64a.835.835 0 0 0 -.833.833z" transform="translate(-250.32 460.819)"/><path d="m275.861-449.094h-3.313-.051-.166a7.05 7.05 0 0 0 -1.608.178 5.749 5.749 0 0 0 -1.634.649 5.1 5.1 0 0 0 -1.444 1.291 6.327 6.327 0 0 0 -1.016 2.072 10.4 10.4 0 0 0 -.383 2.97v3.307a10.206 10.206 0 0 0 .384 2.936 6.365 6.365 0 0 0 1.016 2.064 5.224 5.224 0 0 0 1.442 1.3 5.756 5.756 0 0 0 1.634.669 6.825 6.825 0 0 0 1.611.19h.165.052 3.313a.835.835 0 0 0 .833-.833v-1.64a.835.835 0 0 0 -.833-.833h-3.5a2.591 2.591 0 0 1 -1.413-.288 2.431 2.431 0 0 1 -.943-1.2 6.435 6.435 0 0 1 -.369-2.369v-3.307a7.483 7.483 0 0 1 .213-1.928 2.308 2.308 0 0 1 2.513-1.928h3.5a.835.835 0 0 0 .833-.833v-1.64a.835.835 0 0 0 -.833-.833z" transform="translate(-140.572 460.818)"/><path d="m201.344-449.1h-4.372c-2.2 0-4.606.663-5.581 2.97a4.955 4.955 0 0 0 1.362 5.934 6.585 6.585 0 0 0 1.827.889c.7.219 1.4.411 2.109.565a10.458 10.458 0 0 1 1.079.283 2.77 2.77 0 0 1 .772.382 1.913 1.913 0 0 1 -.051 2.869 3.276 3.276 0 0 1 -1.829.372h-4.8a.828.828 0 0 0 -.8.848v1.669a.828.828 0 0 0 .8.848h4.8a10.231 10.231 0 0 0 2.243-.273 5.893 5.893 0 0 0 2.041-.886 4.433 4.433 0 0 0 1.4-1.628 5.5 5.5 0 0 0 .528-2.529 5.285 5.285 0 0 0 -.49-2.436 4.177 4.177 0 0 0 -1.282-1.477 6.321 6.321 0 0 0 -1.825-.875 22.891 22.891 0 0 1 -3.909-1.135 1.773 1.773 0 0 1 .051-2.662 2.957 2.957 0 0 1 1.593-.354h4.328a.828.828 0 0 0 .8-.848v-1.669a.828.828 0 0 0 -.8-.848z" transform="translate(-92.205 460.819)"/><path d="m497.337-449.1h-4.372c-2.2 0-4.606.663-5.581 2.97a4.955 4.955 0 0 0 1.362 5.934 6.589 6.589 0 0 0 1.827.889c.7.219 1.4.411 2.109.565a10.425 10.425 0 0 1 1.079.283 2.772 2.772 0 0 1 .772.382 1.913 1.913 0 0 1 -.051 2.869 3.278 3.278 0 0 1 -1.829.372h-4.8a.828.828 0 0 0 -.8.848v1.669a.828.828 0 0 0 .8.848h4.8a10.234 10.234 0 0 0 2.243-.273 5.9 5.9 0 0 0 2.041-.886 4.44 4.44 0 0 0 1.4-1.628 5.5 5.5 0 0 0 .528-2.529 5.285 5.285 0 0 0 -.49-2.436 4.177 4.177 0 0 0 -1.275-1.477 6.321 6.321 0 0 0 -1.825-.875 22.9 22.9 0 0 1 -3.909-1.135 1.774 1.774 0 0 1 .051-2.662 2.957 2.957 0 0 1 1.594-.354h4.328a.828.828 0 0 0 .8-.848v-1.669a.828.828 0 0 0 -.8-.848z" transform="translate(-282.355 460.819)"/></g></svg>