<svg fill="none" height="42" viewBox="0 0 154 42" width="154" xmlns="http://www.w3.org/2000/svg"><g fill="#3059E9"><path d="m4.2164 41.8757c-1.12266 0-2.03241-.3304-2.72923-.9911-.658114-.6995-.98717-1.6322-.98717-2.7981v-34.1029c0-1.12705.3097-2.00148.9291-2.6233.65811-.621817 1.5485-.932727 2.67116-.932727h14.28494c4.3745 0 7.7812 1.107617 10.2201 3.322847 2.4388 2.17636 3.6583 5.24659 3.6583 9.21068 0 3.9641-1.2195 7.0538-3.6583 9.269-2.4389 2.2152-5.8456 3.3228-10.2201 3.3228h-10.39434v12.5336c0 1.1659-.34841 2.0986-1.04523 2.7981-.65811.6607-1.56786.9911-2.72923.9911zm13.2397-22.094c5.1487 0 7.7231-2.2541 7.7231-6.7623 0-4.50818-2.5744-6.76228-7.7231-6.76228h-9.46524v13.52458z"/><path d="m92.659 41.8174c-1.1613 0-2.0904-.3304-2.7873-.9911-.6581-.6995-.9871-1.6128-.9871-2.7398v-31.4796h-10.5685c-2.3228 0-3.4842-1.02989-3.4842-3.08966 0-2.05978 1.1614-3.089667 3.4842-3.089667h28.6279c2.323 0 3.484 1.029887 3.484 3.089667 0 2.05977-1.161 3.08966-3.484 3.08966h-10.5686v31.4796c0 1.127-.3484 2.0403-1.0452 2.7398-.6581.6607-1.5485.9911-2.6712.9911z"/><path d="m149.842.136096c1.122 0 2.013.349773 2.671 1.049324.658.66068.987 1.55454.987 2.68159v34.21949c0 1.127-.348 2.0403-1.045 2.7398-.658.6996-1.529 1.0494-2.613 1.0494-1.123 0-2.013-.3498-2.671-1.0494-.659-.6995-.988-1.6128-.988-2.7398v-14.399h-20.962v14.399c0 1.127-.349 2.0403-1.046 2.7398-.658.6996-1.548 1.0494-2.671 1.0494-1.084 0-1.974-.3498-2.671-1.0494-.658-.6995-.987-1.6128-.987-2.7398v-34.21949c0-1.12705.329-2.02091.987-2.68159.658-.699551 1.548-1.049324 2.671-1.049324s2.013.349773 2.671 1.049324c.697.66068 1.046 1.55454 1.046 2.68159v13.75769h20.962v-13.75769c0-1.12705.329-2.02091.988-2.68159.658-.699551 1.548-1.049324 2.671-1.049324z"/><path clip-rule="evenodd" d="m50.803 2.9722c1.7575-3.962934 7.3548-3.962933 9.1123 0 4.3776 9.871 10.5897 23.8747 14.1519 31.8937 2.0818 4.6865-3.3903 9.1386-7.5288 6.1817l-11.1793-7.9874-11.1793 7.9874c-4.1385 2.9569-9.6106-1.4952-7.5288-6.1817 3.5622-8.019 9.7743-22.0227 14.152-31.8937zm4.5561 5.40288c-3.4778 7.84152-7.7435 17.45702-10.9519 24.68402l8.0583-5.7575c1.7321-1.2376 4.0551-1.2376 5.7872 0l8.0584 5.7575c-3.2085-7.227-7.4742-16.8426-10.952-24.68402z" fill-rule="evenodd"/></g></svg>