<?xml version="1.0" encoding="utf-8"?>
<!-- Generator: Adobe Illustrator 24.0.2, SVG Export Plug-In . SVG Version: 6.00 Build 0)  -->
<svg version="1.0" id="Layer_1" xmlns="http://www.w3.org/2000/svg" xmlns:xlink="http://www.w3.org/1999/xlink" x="0px" y="0px"
	 viewBox="0 0 300 280" enable-background="new 0 0 300 280" xml:space="preserve">
<g id="g118" transform="translate(-1.1060153,1.1060153)">
</g>
<g>
	<path id="XMLID_39_" fill="#2A569C" d="M195.46,111.78h5.76v27.43c0,2.43-2.3,2.81-3.07,2.81c-1.26,0-2.02-0.86-2.45-1.35
		l-15.84-20.16v21.09h-5.74v-27.88c0-1.23,1.04-2.73,3.16-2.73c1.52,0,2.18,0.66,2.6,1.12l15.57,19.58V111.78z"/>
	<path id="XMLID_42_" fill="#2A569C" d="M48.73,117.09v7.52h6.92c3.37,0,5.02-0.75,5.02-3.78c0-3.07-1.65-3.74-5.02-3.74H48.73z
		 M57,111.78c6.36,0,9.39,2.7,9.39,8.98c0,4.61-1.94,7.56-5.42,8.39l6.69,12.47H61.3l-6.07-12.04h-6.5v12.04h-5.65v-29.83H57z"/>
	<rect id="XMLID_43_" x="124.11" y="111.78" fill="#2A569C" width="5.91" height="29.83"/>
	<path id="XMLID_44_" fill="#2A569C" d="M210.46,127.48c0,6.69,1.81,8.94,6.48,8.94h11.29v5.2h-11.54c-3.2,0-5.67-0.29-8.24-2.62
		c-2.73-2.45-4.05-6.36-4.05-11.76c0-10.56,3.94-15.47,12.44-15.47h11.4v5.11h-11.29C212.26,116.88,210.46,120.08,210.46,127.48"/>
	<path id="XMLID_45_" fill="#2A569C" d="M152.52,114.32c-0.35-0.71-0.47-0.74-0.69-0.74c-0.23,0-0.36,0.03-0.7,0.74l-13.29,27.29
		h-6.11l14.26-29.2c1.52-3.11,3.3-4.46,5.84-4.46c2.53,0,4.31,1.35,5.83,4.46l14.25,29.2h-6.09L152.52,114.32z"/>
	<polygon id="XMLID_46_" fill="#D72A29" points="151.81,122.79 142.8,141.61 147.86,141.61 155.77,141.61 160.83,141.61 	"/>
	<path id="XMLID_47_" fill="#2A569C" d="M121.22,136.42l-14.99,0h-1.72v-1.72v-22.92h-5.63v24.93c0,2.72,2.25,4.91,4.93,4.91h14.44
		L121.22,136.42z"/>
	<path id="XMLID_50_" fill="#2A569C" d="M74.24,124.62c0.74-4.88,3.31-7.82,8.06-7.82c5.82,0,7.49,4.67,7.5,7.82H74.24z
		 M82.04,111.37c-9.3,0.01-13.99,6.73-14.01,15.34c0.02,8.6,5.6,15.16,14.91,15.18c5.96,0,10.13-2.64,11.98-4.38l-2.7-4.42
		c-1.23,1.17-3.45,3.42-9.13,3.42c-4.17,0-8.83-3.02-8.83-6.65l-0.01-0.29h21.13l0.01-0.03C97.03,117.65,91.69,111.37,82.04,111.37"
		/>
	<path id="XMLID_53_" fill="#2A569C" d="M235.48,124.62c0.75-4.88,3.31-7.82,8.06-7.82c5.82,0,7.49,4.67,7.51,7.82H235.48z
		 M243.28,111.37c-9.3,0.01-13.99,6.73-14.01,15.34c0.02,8.6,5.6,15.16,14.91,15.18c5.96,0,10.13-2.64,11.98-4.38l-2.7-4.42
		c-1.23,1.17-3.44,3.42-9.13,3.42c-4.17,0-8.83-3.02-8.83-6.65l-0.01-0.29h21.13l0.01-0.03
		C258.27,117.65,252.92,111.37,243.28,111.37"/>
	<g>
		<path fill="#D72A29" d="M51.98,157.94c-0.46-0.35-1.12-0.53-1.98-0.53c-1.12,0-2.05,0.53-2.81,1.58
			c-0.75,1.05-1.13,2.49-1.13,4.32v8.34h-2.62v-16.37h2.62v3.37h0.06c0.37-1.15,0.94-2.05,1.71-2.69c0.77-0.64,1.63-0.97,2.57-0.97
			c0.68,0,1.2,0.07,1.57,0.22V157.94z"/>
		<path fill="#D72A29" d="M67.55,164.13H55.99c0.04,1.82,0.53,3.23,1.47,4.22c0.94,0.99,2.23,1.49,3.87,1.49
			c1.84,0,3.54-0.61,5.08-1.82v2.46c-1.44,1.04-3.34,1.57-5.71,1.57c-2.31,0-4.13-0.74-5.45-2.23c-1.32-1.49-1.98-3.58-1.98-6.27
			c0-2.55,0.72-4.62,2.17-6.23c1.44-1.6,3.24-2.41,5.38-2.41c2.14,0,3.8,0.69,4.97,2.08c1.17,1.39,1.76,3.31,1.76,5.77V164.13z
			 M64.87,161.91c-0.01-1.51-0.38-2.69-1.1-3.53c-0.72-0.84-1.72-1.26-3-1.26c-1.24,0-2.29,0.44-3.15,1.33
			c-0.86,0.89-1.4,2.04-1.6,3.47H64.87z"/>
		<path fill="#D72A29" d="M79.11,171.5c-0.62,0.34-1.43,0.51-2.45,0.51c-2.87,0-4.3-1.6-4.3-4.8v-9.69h-2.81v-2.24h2.81v-4
			l2.62-0.85v4.84h4.12v2.24h-4.12v9.22c0,1.1,0.19,1.88,0.56,2.35c0.37,0.47,0.99,0.7,1.85,0.7c0.66,0,1.23-0.18,1.71-0.54V171.5z"
			/>
		<path fill="#D72A29" d="M94.33,171.66h-2.62v-2.56h-0.06c-1.14,1.96-2.82,2.94-5.04,2.94c-1.63,0-2.91-0.43-3.83-1.3
			c-0.92-0.86-1.38-2.01-1.38-3.44c0-3.06,1.8-4.84,5.4-5.34l4.91-0.69c0-2.78-1.12-4.17-3.37-4.17c-1.97,0-3.75,0.67-5.34,2.01
			v-2.69c1.61-1.02,3.46-1.53,5.56-1.53c3.85,0,5.77,2.04,5.77,6.11V171.66z M91.71,163.38l-3.95,0.54
			c-1.21,0.17-2.13,0.47-2.75,0.9c-0.62,0.43-0.93,1.2-0.93,2.29c0,0.8,0.28,1.45,0.86,1.96c0.57,0.51,1.33,0.76,2.28,0.76
			c1.3,0,2.37-0.46,3.22-1.37c0.85-0.91,1.27-2.06,1.27-3.46V163.38z"/>
		<path fill="#D72A29" d="M100.44,151.13c-0.47,0-0.87-0.16-1.2-0.48s-0.5-0.72-0.5-1.22s0.17-0.9,0.5-1.22
			c0.33-0.32,0.73-0.49,1.2-0.49c0.48,0,0.89,0.16,1.22,0.49c0.34,0.33,0.5,0.73,0.5,1.22c0,0.47-0.17,0.87-0.5,1.2
			C101.32,150.96,100.92,151.13,100.44,151.13z M101.72,167.08c0,1.5,0.58,2.25,1.74,2.25c0.47,0,0.89-0.06,1.26-0.18v2.37
			c-0.2,0.05-0.47,0.1-0.81,0.15c-0.34,0.05-0.69,0.07-1.06,0.07c-0.52,0-1.01-0.09-1.47-0.26c-0.46-0.17-0.86-0.43-1.19-0.78
			c-0.34-0.35-0.6-0.79-0.8-1.32c-0.2-0.53-0.3-1.14-0.3-1.85v-12.26h2.62V167.08z"/>
		<path fill="#D72A29" d="M110.01,167.08c0,1.5,0.58,2.25,1.74,2.25c0.47,0,0.89-0.06,1.26-0.18v2.37c-0.2,0.05-0.47,0.1-0.81,0.15
			c-0.34,0.05-0.69,0.07-1.06,0.07c-0.52,0-1.01-0.09-1.47-0.26c-0.46-0.17-0.86-0.43-1.19-0.78c-0.34-0.35-0.6-0.79-0.8-1.32
			c-0.2-0.53-0.3-1.14-0.3-1.85v-20.13h2.62V167.08z"/>
	</g>
</g>
</svg>
