<svg enable-background="new 0 0 300 280" viewBox="43.08 107.95 213.84 64.1" xmlns="http://www.w3.org/2000/svg"><path d="m195.46 111.78h5.76v27.43c0 2.43-2.3 2.81-3.07 2.81-1.26 0-2.02-.86-2.45-1.35l-15.84-20.16v21.09h-5.74v-27.88c0-1.23 1.04-2.73 3.16-2.73 1.52 0 2.18.66 2.6 1.12l15.57 19.58v-19.91z" fill="#2a569c"/><path d="m48.73 117.09v7.52h6.92c3.37 0 5.02-.75 5.02-3.78 0-3.07-1.65-3.74-5.02-3.74zm8.27-5.31c6.36 0 9.39 2.7 9.39 8.98 0 4.61-1.94 7.56-5.42 8.39l6.69 12.47h-6.36l-6.07-12.04h-6.5v12.04h-5.65v-29.83h13.92z" fill="#2a569c"/><path d="m124.11 111.78h5.91v29.83h-5.91z" fill="#2a569c"/><path d="m210.46 127.48c0 6.69 1.81 8.94 6.48 8.94h11.29v5.2h-11.54c-3.2 0-5.67-.29-8.24-2.62-2.73-2.45-4.05-6.36-4.05-11.76 0-10.56 3.94-15.47 12.44-15.47h11.4v5.11h-11.29c-4.69 0-6.49 3.2-6.49 10.6" fill="#2a569c"/><path d="m152.52 114.32c-.35-.71-.47-.74-.69-.74-.23 0-.36.03-.7.74l-13.29 27.29h-6.11l14.26-29.2c1.52-3.11 3.3-4.46 5.84-4.46 2.53 0 4.31 1.35 5.83 4.46l14.25 29.2h-6.09z" fill="#2a569c"/><path d="m151.81 122.79-9.01 18.82h5.06 7.91 5.06z" fill="#d72a29"/><path d="m121.22 136.42h-14.99-1.72v-1.72-22.92h-5.63v24.93c0 2.72 2.25 4.91 4.93 4.91h14.44z" fill="#2a569c"/><path d="m74.24 124.62c.74-4.88 3.31-7.82 8.06-7.82 5.82 0 7.49 4.67 7.5 7.82zm7.8-13.25c-9.3.01-13.99 6.73-14.01 15.34.02 8.6 5.6 15.16 14.91 15.18 5.96 0 10.13-2.64 11.98-4.38l-2.7-4.42c-1.23 1.17-3.45 3.42-9.13 3.42-4.17 0-8.83-3.02-8.83-6.65l-.01-.29h21.13l.01-.03c1.64-11.89-3.7-18.17-13.35-18.17" fill="#2a569c"/><path d="m235.48 124.62c.75-4.88 3.31-7.82 8.06-7.82 5.82 0 7.49 4.67 7.51 7.82zm7.8-13.25c-9.3.01-13.99 6.73-14.01 15.34.02 8.6 5.6 15.16 14.91 15.18 5.96 0 10.13-2.64 11.98-4.38l-2.7-4.42c-1.23 1.17-3.44 3.42-9.13 3.42-4.17 0-8.83-3.02-8.83-6.65l-.01-.29h21.13l.01-.03c1.64-11.89-3.71-18.17-13.35-18.17" fill="#2a569c"/><g fill="#d72a29"><path d="m51.98 157.94c-.46-.35-1.12-.53-1.98-.53-1.12 0-2.05.53-2.81 1.58-.75 1.05-1.13 2.49-1.13 4.32v8.34h-2.62v-16.37h2.62v3.37h.06c.37-1.15.94-2.05 1.71-2.69s1.63-.97 2.57-.97c.68 0 1.2.07 1.57.22v2.73z"/><path d="m67.55 164.13h-11.56c.04 1.82.53 3.23 1.47 4.22s2.23 1.49 3.87 1.49c1.84 0 3.54-.61 5.08-1.82v2.46c-1.44 1.04-3.34 1.57-5.71 1.57-2.31 0-4.13-.74-5.45-2.23s-1.98-3.58-1.98-6.27c0-2.55.72-4.62 2.17-6.23 1.44-1.6 3.24-2.41 5.38-2.41s3.8.69 4.97 2.08 1.76 3.31 1.76 5.77zm-2.68-2.22c-.01-1.51-.38-2.69-1.1-3.53s-1.72-1.26-3-1.26c-1.24 0-2.29.44-3.15 1.33s-1.4 2.04-1.6 3.47h8.85z"/><path d="m79.11 171.5c-.62.34-1.43.51-2.45.51-2.87 0-4.3-1.6-4.3-4.8v-9.69h-2.81v-2.24h2.81v-4l2.62-.85v4.84h4.12v2.24h-4.12v9.22c0 1.1.19 1.88.56 2.35s.99.7 1.85.7c.66 0 1.23-.18 1.71-.54v2.26z"/><path d="m94.33 171.66h-2.62v-2.56h-.06c-1.14 1.96-2.82 2.94-5.04 2.94-1.63 0-2.91-.43-3.83-1.3-.92-.86-1.38-2.01-1.38-3.44 0-3.06 1.8-4.84 5.4-5.34l4.91-.69c0-2.78-1.12-4.17-3.37-4.17-1.97 0-3.75.67-5.34 2.01v-2.69c1.61-1.02 3.46-1.53 5.56-1.53 3.85 0 5.77 2.04 5.77 6.11zm-2.62-8.28-3.95.54c-1.21.17-2.13.47-2.75.9s-.93 1.2-.93 2.29c0 .8.28 1.45.86 1.96.57.51 1.33.76 2.28.76 1.3 0 2.37-.46 3.22-1.37s1.27-2.06 1.27-3.46z"/><path d="m100.44 151.13c-.47 0-.87-.16-1.2-.48s-.5-.72-.5-1.22.17-.9.5-1.22.73-.49 1.2-.49c.48 0 .89.16 1.22.49.34.33.5.73.5 1.22 0 .47-.17.87-.5 1.2-.34.33-.74.5-1.22.5zm1.28 15.95c0 1.5.58 2.25 1.74 2.25.47 0 .89-.06 1.26-.18v2.37c-.2.05-.47.1-.81.15s-.69.07-1.06.07c-.52 0-1.01-.09-1.47-.26s-.86-.43-1.19-.78c-.34-.35-.6-.79-.8-1.32s-.3-1.14-.3-1.85v-12.26h2.62v11.81z"/><path d="m110.01 167.08c0 1.5.58 2.25 1.74 2.25.47 0 .89-.06 1.26-.18v2.37c-.2.05-.47.1-.81.15s-.69.07-1.06.07c-.52 0-1.01-.09-1.47-.26s-.86-.43-1.19-.78c-.34-.35-.6-.79-.8-1.32s-.3-1.14-.3-1.85v-20.13h2.62v19.68z"/></g></svg>