<svg height="42.555828" viewBox="0 0 12.819528 11.259563" width="48.451759" xmlns="http://www.w3.org/2000/svg"><g fill="#8d7249" transform="translate(-92.620023 -168.90593)"><path d="m103.0001 170.3791-.72249-.39476.36089-.19791zm.21378-.90664v.78811l-.35983-.59055zm-.24765 1.05692.40323-.22013v-1.27071l-1.56563.85584"/><path d="m101.99892 171.46569v-.39476h.72214zm0-1.02376.72108.3944h-.72108zm.84349.29139-1.1624-.63535v1.71133l1.1624-.635"/><path d="m104.34806 172.1197-.36019-.5909.72038.39476zm-.57644.31609v-.79022l.36125.59231zm-.15416-.83785v1.27035l1.56598-.85619-1.16276-.63429"/><path d="m104.988 170.8363h-.72108l.72108-.39441zm0 .62936-.72284-.39476h.72284zm-.84314-.73202v.44062l1.1624.635v-1.71168"/><path d="m104.34806 169.78646.36124.19826-.72248.39441zm-.57609-.31468.3609.19826-.3609.59196zm1.41182.42263-1.56633-.85619v1.27106l.40322.22013"/><path d="m102.63815 172.12005-.36019-.1965.72179-.3944zm.57573.31503-.36018-.1972.36018-.5909zm-1.41005-.42227 1.56528.85583v-1.2707l-.40288-.22013"/><path d="m94.763797 176.35589c0 .61172 0 1.13665-.03528 1.41711-.02152.19226-.06385.33866-.206728.36548-.0635.0134-.148519.0265-.255411.0265-.08537 0-.113594.0201-.113594.0536 0 .0455.04974.067.141817.067.284338 0 .732366-.0201.895702-.0201.198967 0 .646995.0201 1.116189.0201.07796 0 .134409-.0215.134409-.067 0-.0335-.03528-.0536-.113242-.0536-.106892 0-.263172-.013-.362656-.0265-.21343-.0268-.255411-.17322-.27693-.35984-.03598-.2861-.03598-.81103-.03598-1.42275v-2.72697l.896056.0198c.632531.0138.824442.19968.8382.37254l.0071.073c.0074.0998.02187.13265.07832.13265.04304 0 .05715-.0392.06421-.10548 0-.17322.02152-.63253.02152-.77153 0-.0998-.0071-.1404-.05715-.1404-.05644 0-.227189.067-.681919.067h-2.815167c-.234244 0-.504472-.0138-.710847-.0332-.176742-.0138-.248708-.0804-.305506-.0804-.04233 0-.06421.0395-.08537.12665-.01411.0533-.149225.65863-.149225.76482 0 .073.01446.10618.06385.10618.04269 0 .0642-.0265.07832-.0797.01411-.0529.05009-.13265.121355-.23248.106539-.14676.276578-.17992.689328-.19297l1.058686-.0265"/><path d="m98.73678 176.21792c-.02822 0-.03457-.0198-.02822-.0469l.638175-1.63583c.0067-.0265.02152-.06.04163-.06.02081 0 .02822.0335.03493.06l.623715 1.64218c.007.0208 0 .0406-.0342.0406zm1.40758.33267c.0346 0 .0554.0127.0688.0459l.55492 1.41076c.0349.0794-.0137.1397-.0621.1531-.0695.006-.0974.0198-.0974.0596 0 .0466.0836.0466.20814.0547.55492.0127 1.06115.0127 1.31092.0127.25682 0 .31926-.0127.31926-.0674 0-.0469-.0346-.0536-.0903-.0536-.0836 0-.18732-.006-.29104-.0265-.14605-.0332-.34678-.12629-.61066-.72531-.44344-1.01035-1.553278-3.72427-1.720142-4.09046-.06879-.15275-.110419-.21237-.173214-.21237-.0695 0-.110419.073-.193322.266l-1.740958 4.17653c-.1397.33338-.270933.55845-.591256.59867-.05539.007-.1524.0134-.214841.0134-.05539 0-.08326.0138-.08326.0536 0 .0547.04198.0674.131586.0674.362303 0 .743656-.0194.820209-.0194.214841 0 .512938.0194.734836.0194.07655 0 .117827-.0127.117827-.0674 0-.0399-.02152-.0536-.104422-.0536h-.103716c-.214842 0-.277284-.0868-.277284-.20602 0-.0797.03457-.23918.10407-.40605l.373944-.95073c.01411-.0402.02822-.0529.06279-.0529"/><path d="m103.15285 177.12562c0 1.30528.007 1.96956-.50941 2.48214-.13653.13335-.23813.20567-.32703.25224-.115.0603-.14922.0871-.14922.1203 0 .0335.0275.0529.0547.0529.0339 0 .0875-.013.13617-.0395.14217-.0663.25118-.12029.33973-.17321.65228-.39194 1.01212-.85125 1.15429-1.25695.13723-.37324.16404-.79975.16404-1.17863 0-.33231-.0208-.65123-.0208-.93839v-1.22978c0-1.01071 0-1.19698.0134-1.4097.0141-.23354.0677-.34643.25188-.37888.0819-.0138.12242-.0205.19756-.0205.0815 0 .12206-.0134.12206-.0596s-.0476-.06-.14323-.06c-.26494 0-.69321.0198-.85619.0198-.17639 0-.60466-.0198-.96485-.0198-.1016 0-.14993.0138-.14993.06s.0409.0596.11607.0596c.0953 0 .2099.007.26458.0205.22472.0459.27869.1524.29245.37888.0138.21272.0138.39899.0138 1.4097"/></g></svg>