<svg fill="none" height="60" viewBox="0 0 100 60" width="100" xmlns="http://www.w3.org/2000/svg" xmlns:xlink="http://www.w3.org/1999/xlink"><clipPath id="a"><path d="m0 0h100v59.1346h-100z"/></clipPath><g clip-path="url(#a)"><path d="m96.3549 58.9179c-.455-.1597-1.0448-.6574-2.6744-2.257-1.15-1.1287-2.1264-2.0522-2.1699-2.0522-.0436 0-.7953.3762-1.6704.8359-2.7582 1.4488-5.1478 2.0423-8.2057 2.038-5.126-.0071-9.9221-2.4323-13.069-6.6086-2.2758-3.0201-3.3385-6.1493-3.3365-9.8243.0015-2.1171.128-3.0267.6654-4.7733 1.314-4.2702 4.3709-7.9167 8.4017-10.0224 2.4121-1.26 4.7613-1.8324 7.5175-1.8315 4.6232.0015 8.5236 1.608 11.7649 4.8458 3.0492 3.046 4.5861 6.5638 4.8065 11.0021.1711 3.444-.5536 6.1065-2.6916 9.8892l-.3046.5388 2.029 1.9577c2.5852 2.4943 2.8902 3.0817 2.3685 4.5594-.2704.7654-.8772 1.3572-1.7112 1.6689-.8106.303-.945.3056-1.7202.0335z" fill="#000"/><path d="m84.8678 51.64c3.7327-1.0244 6.7039-4.0385 7.7445-7.8563.4156-1.5249.4185-4.3778.0058-5.812-1.1212-3.8973-4.1024-6.8127-8.0536-7.8761-1.4301-.3849-3.8388-.3815-5.3085.0075-6.4632 1.7105-10.2312 8.4788-8.0487 14.4575 1.0191 2.7919 3.3829 5.3113 6.1442 6.5489 2.2845 1.0239 5.016 1.2167 7.5162.5305z" fill="#f7f7f7"/><g fill="#000"><path d="m11.988 57.5744c-2.12691-.3062-4.67135-1.1928-6.10707-2.1278-1.17581-.7657-2.75231-2.431-3.4183-3.6108-1.06645-1.8893-2.021789-5.2642-2.350645-8.3042-.386433-3.5722.246632-8.0584 1.599685-11.3362 1.51671-3.6743 4.27947-6.0645 8.20124-7.0955 1.68269-.4424 2.98849-.5938 5.12299-.5939 4.5415-.0003 7.9092 1.2709 10.4252 3.9352 1.4052 1.488 1.7748 2.5692 1.2629 3.6948-.6388 1.405-2.5036 1.9062-3.692.9923-.2503-.1924-.9654-.8044-1.5892-1.3598-2.0102-1.7901-3.5887-2.3534-6.6015-2.3558-1.6773-.0014-2.0794.0402-2.9181.3011-2.26678.7053-3.85519 2.0084-4.78241 3.9233-1.19355 2.4649-1.73988 7.1177-1.24549 10.6071.69325 4.893 2.40916 7.291 5.9076 8.256 1.2018.3315 5.413.3242 6.5402-.0114 1.0665-.3175 2.2942-1.0058 3.349-1.8776 1.6311-1.3482 1.9651-1.5726 2.6419-1.7748.8569-.2561 1.5102-.1015 2.0726.4904.5732.6033.8206 1.1625.8206 1.8551 0 .8454-.3107 1.4091-1.3592 2.4659-2.0938 2.1104-4.84 3.3672-8.5873 3.9302-1.0793.1621-4.1564.1601-5.2927-.0034z"/><path d="m33.5871 56.9236c-.6657-.1988-1.1425-.5864-1.4668-1.1922l-.2888-.5397-.0359-13.7932c-.0253-9.7324.0065-13.997.1081-14.4857.2568-1.2354 1.3227-2.1021 2.5855-2.1021 1.1595 0 2.0339.5254 2.4795 1.4899.2275.4924.2396 1.1452.2423 13.1176l.0029 12.5994h6.0054 6.0053l.6689.3329c.5591.2783.7254.4486 1.0141 1.0379.6509 1.3291.2442 2.6508-1.0235 3.3261-.5434.2895-.5484.2897-8.1957.3165-4.9792.0174-7.8089-.0201-8.1012-.1074z"/><path d="m57.0422 56.8916c-.742-.2649-1.2377-.6845-1.5361-1.3001-.2735-.5644-.2765-.667-.3029-10.137l-.0267-9.5667.3242-.6469c.4631-.9239 1.1921-1.3988 2.2506-1.4662.6452-.041.9305.005 1.3466.217.7206.3672 1.2911 1.0966 1.455 1.86.087.4053.1357 3.8495.1357 9.6062 0 7.8683-.0258 9.061-.2087 9.6779-.4407 1.4866-1.9839 2.2748-3.4377 1.7558z"/></g><path d="m58.419 30.4349c-.5866-.3162-4.4746-4.2029-4.6823-4.6808-.2678-.6157-.2304-1.7645.0769-2.3662.6336-1.2406 2.3523-1.7731 3.6025-1.116.1949.1025 1.2974 1.1383 2.4499 2.3018 1.7822 1.7992 2.1186 2.2019 2.2495 2.6931.2936 1.1013-.1455 2.3028-1.0772 2.9478-.6432.4453-1.9917.5587-2.6193.2203z" fill="#ff1744"/><path d="m35.9167 10.106v-5.50617h-2.2048-2.2048v-2.26724-2.2672442h7.3278 7.3277v2.2672442 2.26724h-2.2075-2.2076l.0352 5.50617.0351 5.5062h-2.9506-2.9505z" fill="#000"/><path d="m4.6763 4.64082h-4.561554v-4.5754189h15.388554v4.5754189h-4.4147v10.99608h-6.4123z" fill="#000"/><path d="m26.5775 15.6369-3.2808-9.27996-3.24 9.27996h-6.158l6.0396-15.5714989h6.6878l6.1851 15.5714989z" fill="#000"/><path d="m35.9027 4.64082h-4.5626v-4.5754189h15.3879v4.5754189h-4.4133v10.99608h-6.412z" fill="#486aae"/><path d="m57.8039 15.6369-3.2797-9.27996-3.2412 9.27996h-6.158l6.0416-15.5714989h6.6858l6.183 15.5714989z" fill="#000"/><path d="m42.3149 4.64082v10.99618h-6.4123v-10.99618h-4.5615v-4.575417h15.3885v4.575417z" fill="#000"/></g></svg>