<svg enable-background="new -66.809 -112.76 700.806 560.091" height="560.091" viewBox="-66.809 -112.76 700.806 560.091" width="700.806" xmlns="http://www.w3.org/2000/svg"><path d="m283.57-59.301c-10.925-27.278-37.54-56.738-87.388-52.691-63.499 6.903-83.287 67.756-73.689 104.059-25.291-17.125-68.294-24.655-105.829 7.497-48.464 48.581-22.541 114.281 4.101 130.04-29.362-2.718-75.768 17.122-86.034 69.022-10.921 64.438 38.201 102.003 86.034 102.003h530.413c55.312 0 86-47.851 82.558-92.979-5.426-58.896-59.321-81.493-88.72-76.651 24.562-13.704 57.365-78.076 7.485-128.682-39.595-37.662-90.07-23.958-107.818-7.532 9.567-31.462-6.122-96.498-70.341-106.784-4.44-.497-8.714-.763-12.787-.763-49.023.007-71.067 35.843-77.985 53.461" fill="#fff"/><path d="m25.497 9.818c-28.003 25.35-38.195 82.79 12.286 116.368l201.391 138.169-97.648-223.713c-20.462-52.791-76.44-64.303-116.029-30.824" fill="#f37021"/><path d="m198.857-98.951c-32.736.667-81.893 39.65-60.017 99.178l100.995 238.186 35.489-250.526c8.212-62.25-38.897-90.986-76.467-86.838" fill="#cc004c"/><path d="m291.084-21.668h19.097s10.198 0 11.586 4.811c-7.515 6.137-27.97 6.906-25.254 39.687l32.103 215.549 100.305-238.811c20.517-53.322-22.548-97.854-60.749-99.215-1.784-.128-3.575-.232-5.429-.232-34.287-.001-73.579 24.918-71.659 78.211" fill="#6460aa"/><path d="m424.883 42.671-94.872 221.029 201.332-138.898c46.41-32.918 38.925-85.546 12.946-111.56-10.891-12.244-30.888-21.702-52.071-21.702-25.026-.005-51.809 13.269-67.335 51.131" fill="#0089d0"/><path d="m508.801 156.251-189.075 132.067h232.806c47.763 0 78.457-49.246 64.812-94.438-9.139-28.406-36.177-50.704-67.56-50.736-13.21.005-27.219 3.984-40.983 13.107" fill="#0db14b"/><path d="m20.072 288.318h229.371l-189.123-132.067c-43.692-28.072-92.82-11.646-110.556 34.939-15.034 53.327 22.503 97.128 70.308 97.128" fill="#fcb711"/><g fill="#292526"><path d="m-66.069 383.898c0 22.492 18.387 63.433 88.595 63.433 64.73 0 85.174-29.702 85.174-43.321h-50.113s-2.38 17.993-30.649 17.993c-28.287 0-35.937-23.611-35.937-37.264 0-13.601 7.65-35.937 35.937-35.937 28.269 0 30.649 15.665 30.649 15.665h50.113c0-13.635-15-42.918-85.174-42.918-70.208 0-88.595 43.602-88.595 62.349"/><path d="m459.487 383.898c0 22.492 18.406 63.433 88.595 63.433 64.724 0 85.176-29.702 85.176-43.321h-50.078s-2.391 17.993-30.667 17.993c-28.29 0-35.948-23.611-35.948-37.264 0-13.601 7.658-35.937 35.948-35.937 28.276 0 30.667 15.665 30.667 15.665h50.078c0-13.635-14.984-42.918-85.176-42.918-70.188 0-88.595 43.602-88.595 62.349"/><path d="m244.659 323.649v76.141l-58.321-76.141h-65.606v120.601h44.977v-77.016l57.3 77.016h66.63v-120.601z"/><path d="m388.786 415.438v.159h-37.476v-22.144h37.476v.072c8.002 0 14.469 4.918 14.469 10.974 0 6.041-6.467 10.939-14.469 10.939m-37.132-68.333h36.11v.051c6.118 0 11.079 4.025 11.079 8.979 0 4.973-4.961 8.963-11.079 8.963v.054h-36.11zm73.939 33.029c8.188 0 25.308-9.505 25.308-27.919 0-26.221-48.827-28.566-56.317-28.566h-89.962v120.601h89.962c43.268 0 60.649-13.669 60.649-36.495s-29.64-27.621-29.64-27.621z"/></g></svg>