<svg height="58.693668" preserveAspectRatio="none" viewBox="0 0 114.37799 9.9779236" width="672.34369" xmlns="http://www.w3.org/2000/svg"><path d="m1.3022175 9.6957283c.7998675-.0037 1.3133397-.03337 1.5506121-.0862.2307845-.05561.3688844-.207613.4115193-.456935.044488-.248394.055611-2.5284335.038001-6.8391906l-.0519037-1.94729879-1.0705062.0064879c-.5941078.0602449-1.0454815.263224-1.35875513.6043031-.3484938.39205549-.64230374.77576939-.73498826 1.66739449h-.07136708l-.01482953-2.54048269 4.1847062-.0018537 4.2746102-.0194638.0120489 2.56180019h-.0315127c-.1584905-.9472358-.2400529-.9954318-.3568354-1.2568021-.3160542-.69328019-.9027473-1.03621299-1.7610059-1.03250559l-1.1984109.00463-.021317 2.19940369.01483 3.1327369c.00834 2.2772588.022244 3.4775238.036147 3.5989398.01761.123271.2113207.215028.5857662.283615.3707381.06581.8211849.100099 1.3392914.09546l.074148.160344-5.9243947.02595.074148-.160344m9.9463457.1547942-1.8879844-.03522-1.9954977.040781v-.196491c.8193312-.0056 1.2586558-.08434 1.3049981-.239126.019464-.05468.03244-.268786.038927-.646938.00463-.3763.00556-.89904.00185-1.565442l-.0064838-1.5469047-.0037074-.9611385-.0018536-.3030784-.0009269-.2289307-.0009268-.1900033.0009268-.143661c-.0037074-.3132737-.0203906-.4995696-.0546839-.5607414-.0509764-.1492221-.48474-.2224428-1.3068517-.2187355v-.2103938l2.0575964.03244 1.8268119-.049123.0019.209467c-.696988.00278-1.087189.075074-1.172459.2113207-.04542.1241973-.0658063 1.065872-.0574653 2.8250242l3.1559073-.014829-.0056-.5913272-.000926-.4662032c-.0037-1.0232378-.02781-1.6080771-.07879-1.7535918-.0519-.1473684-.443959-.2150281-1.184509-.2141013l.000927-.2085402 1.792519.03522 2.103939-.05283.000926.209467c-.814696.00278-1.244753.075074-1.289241.2141012-.04449.1381-.06488.9203573-.05561 2.3449185l.0019.6441574c.0074 2.007547.03707 3.075272.0862 3.208738.05098.130685.477326.194638 1.283681.19093l.0019.210394-2.040914-.03337-1.85369.04078-.0028-.202052c.705329-.0019 1.094604-.07044 1.169678-.211321.05654-.09732.08064-1.109434.07044-3.0298571l-3.1549811.012976c.00741 1.8953983.039855 2.8991723.08527 3.0085393.03059.07785.190003.131612.481033.164979.09732.0074.330883.02595.688646.06025zm6.17733-.439325c.04727-.146441.06859-.892552.0621-2.235551l-.0046-1.5580264c-.0065-1.455147-.03433-2.2540876-.08067-2.3968218-.04449-.1418073-.483813-.2122475-1.311486-.209467l-.0028-.1659053c.392055-.00278.950943-.00556 1.675736-.00834.723866-.00278 1.246607-.00649 1.57749-.00649l3.246739-.013903.01483 2.7379008h-.178862c-.116783-1.066798-.34386-1.761932-.682158-2.0816936-.335518-.3206884-.967627-.4810326-1.895399-.4763984-.195564.0009269-.390202.00185-.578351.00278-.251175.015756-.395763.058391-.428203.1362463-.05468.1130751-.07878 1.0816284-.07229 2.9065866l.422642.00927c.585766-.00278.991724-.1353194 1.21046-.3976166.217808-.2595167.328103-.7563057.324395-1.4810987h.166832l.01854 4.0540211h-.167759c-.000926-.742403-.107514-1.26329-.312346-1.5626611-.202053-.3021516-.564449-.44952-1.071434-.4476663l-.588546.00185c.0083 1.9853027.03707 3.0641507.08527 3.2393237.02966.111222.454154.165906 1.279046.162198.889771-.0046 1.505197-.1761 1.85091-.51996.376299-.371665.644157-1.099238.798941-2.189208h.167758l.0083 1.866666.0139 1.058457-3.835286-.0241-3.019662.04449v-.218736c.823966-.0046 1.257729-.07971 1.305925-.22615zm10.046446-.178881c.06581-.204833.09361-1.24846.08712-3.13181l-.012045-2.1780863c-.0056-2.0390595-.04263-3.15590799-.110295-3.35610659-.0621-.2001985-.676597-.2965904-1.835153-.2928831l-.0028-.233565c.547766-.00278 1.328169-.00649 2.342138-.011122 1.014896-.00556 1.749884-.00741 2.208672-.00834l4.55081-.020391.01854 3.83157819-.251175.00185c-.164035-1.494999-.481016-2.4644791-.950927-2.91585269-.474545-.4513737-1.361536-.6728897-2.659119-.6682554-.272492.00185-.540351.00371-.805428.00463-.354055.021317-.554254.087123-.603377.1955643-.07693.15571-.109367 1.51168459-.09732 4.06514319l.589473.010195c.823039-.00185 1.385634-.1890765 1.693346-.5533266.31142-.365177.458789-1.0593841.456008-2.0733528l.233565-.0009268.0241 5.6760001-.233565.0019c-.004634-1.0399621-.149222-1.7703162-.43469-2.1892502-.288249-.4207877-.786892-.6284011-1.505197-.6256205l-.823965.00185c.0139 2.7786816.05283 4.2885126.122343 4.5331996.04078.158491.639524.231712 1.791592.228931 1.2429-.0056 2.105793-.248394 2.592386-.729427.527375-.519033.89904-1.53949 1.114995-3.0613697l.237273-.0009269.01112 2.6118496.02039 1.483879-5.369214-.03615-4.228268.06395.000927-.30864c1.148361-.0037 1.757298-.108441 1.827738-.315127zm13.897859-2.3991827c.0019.9833827-.225223 1.7471037-.691426 2.2911617-.463423.546838-1.112215.819331-1.949156.825819-.955577.0019-1.724859-.314201-2.305064-.950943-.578351-.638597-.872161-1.495002-.877722-2.5738496-.0028-1.1196291.291956-2.0344253.887917-2.7480961.594108-.7136708 1.353194-1.0705063 2.261503-1.0732868.341079-.00278.64045.056538.891625.1751738.257663.1214167.509765.3197616.759086.6005957l.09825-.00185c.09639-.1390268.184442-.2771267.266004-.4161535.07785-.1418074.147369-.2956637.210394-.4634227l.157564.0009269.01298 3.311618-.189077.00185c-.228939-2.0205226-.953731-3.0280034-2.164191-3.0215155-.60245.00371-1.063092.2956637-1.375439.8823567-.31142.586693-.465276 1.4523665-.457861 2.5998009.0065 2.3161862.671963 3.4719622 1.989936 3.4682552.6905-.0046 1.241973-.263224 1.663688-.772062.418934-.511619.626547-1.202119.62284-2.072426v-.063026l.188149-.0009268m2.208672-3.1966811c-.313273.5681561-.466203 1.3986094-.465276 2.49136.0065 1.1483608.169613 2.0381328.49957 2.6739488.325322.633962.772062.950943 1.325388.949089 1.21046-.0065 1.811983-1.087189 1.805495-3.2421044-.0056-1.203045-.165905-2.1280366-.479179-2.7694135-.309566-.6395232-.745184-.9602116-1.304998-.9574311-.60523.0009268-1.065872.287322-1.381.8545512zm.07785 6.0411768c-.398538-.1816609-.751666-.4383969-1.051037-.7683539-.302152-.328103-.536643-.715525-.70811-1.165045-.168686-.446739-.253955-.9073812-.255809-1.3800723-.000927-.5431313.09361-1.0593841.287322-1.5469047.191857-.4875206.464349-.9129425.819331-1.275339.616352-.6293279 1.361536-.9472358 2.234624-.9490895.69328-.00371 1.33095.2289307 1.90374.7016218.419861.3447864.744257.7776231.98431 1.299437.234492.5218139.352201 1.0769942.353128 1.6692483.0083 1.0213834-.318835 1.8907644-.975041 2.6053624-.65528.716451-1.44866 1.076067-2.372724 1.081628-.411519 0-.815624-.08898-1.219729-.272493zm3.821198-.0083c.57001-.08805.945382-.251175 1.124263-.488447.160344-.207614.24098-.591328.238199-1.141874l-.0037-.347567-.101026-4.0039711c-.133468-.2845753-.295666-.4727249-.492157-.5626289-.196491-.0889772-.499569-.1343926-.910162-.131612l-.0019-.1696127 1.138166.01761 1.129825-.00371 3.77504 4.9048651-.0139-2.8963915c-.00181-.702546-.092641-1.1789445-.264107-1.4301195-.213175-.2975173-.636743-.4448857-1.270705-.443032v-.1686859l1.503343.016683 1.494074-.00741.000927.1464415c-.585766.00278-.959285.1529295-1.127044.4532273-.116782.2094671-.171466.6673286-.169612 1.3698773l.0093 2.40331c.0028.34664.01576.833233.03893 1.452366s.03707 1.067726.038 1.339292h-.210428c-.201125-.3540595-.409665-.6775285-.611717-.9685585-.119563-.178881-.421715-.584839-.908309-1.214167l-2.968685-3.8769936.08898 3.8241636c.0074.724793.111222 1.219728.315128 1.490367.20854.272492.626547.403178 1.250314.401324l.0019.188149-1.316121-.01483c-.202979.000927-.515326.01112-.940748.03059-.426349.01854-.704402.02688-.836014.02781zm8.546347-6.0337768c-.312347.5709366-.46713 1.3995363-.463423 2.49136.0074 1.1483608.168686 2.0409128.496789 2.6739488.32625.636742.766502.952797 1.326316.950943 1.21324-.0074 1.814763-1.08719 1.803641-3.2448853-.0056-1.2030451-.164979-2.1243293-.476399-2.766633-.313273-.6432306-.74611-.9620654-1.305925-.958358-.604303.0009269-1.067725.2882489-1.380999.8536245zm.07785 6.0430308c-.400397-.183515-.750745-.439325-1.052896-.769281-.301225-.330884-.533863-.716452-.705329-1.165045-.168686-.447666-.253956-.9073814-.25581-1.3809993-.0019-.5412776.09269-1.0584573.285469-1.5459779.192784-.4865937.464349-.9138693.819331-1.2771927.618206-.6274742 1.360609-.9444553 2.231843-.9481626.697915-.00185 1.331877.2317113 1.904667.7025486.421715.3438596.750745.7776232.982456 1.2985102.238199.5227407.354055 1.0769942.357762 1.6692483.0065 1.0232374-.322542 1.8907644-.976895 2.6072154-.652499.715525-1.444951 1.076994-2.369016 1.080702-.411519.000927-.820258-.08805-1.221582-.271566zm5.443455-6.4653672.10566 4.4470032c.0046.788746.0862 1.312413.248395 1.568222.194637.305859.603376.458789 1.224362.456935l-.0019.15571-.895332-.0065c-.238199-.000927-.583913.01298-1.038067.03615-.450446.02224-.785964.03244-1.000992.03429l.000926-.166832c.476399-.000927.81377-.09547 1.005627-.279907.192784-.184442.287322-.494009.283615-.924065l.000927-.04356-.0917-4.0039948c-.001856-.5570339-.083418-.9388942-.242835-1.1409464-.161271-.2048328-.489375-.3077126-.986164-.3040053v-.1779542l1.091824.00556 1.638662-.00741 1.605296 4.9975495h.08249l1.519099-5.0123791c.08712 0 .215028 0 .38186-.00185.168686 0 .285469-.0009268.354982-.0009268l.932406-.00463 1.149288-.00556v.1890764c-.794306.00463-1.207679.060245-1.242899.1686859-.03244.107514-.04912.4411783-.04727.9963586l.0019.2521019.01761 3.7398201c-.0028.237273.0028.492155.0037.767428 0 .277127.01298.445813.03893.506985.05932.14088.476399.209467 1.256803.203906v.167759l-1.95379-.01298-2.004766.0083v-.146441c.686792-.0037 1.09275-.02502 1.205825-.06859.113075-.04078.171467-.200198.169613-.481032l-.02132-5.8928825-.166832.00185-1.001919 3.2865932c-.476438 1.5599196-.786004 2.6712066-.926885 3.3357546l-.366104.0028-2.149354-6.647334zm8.972696 6.2082102c.02873-.08527.0482-.442105.05932-1.073286.01298-.628401.01576-1.5255876.01019-2.6897052-.0093-1.4366101-.03615-2.233697-.0899-2.3931144-.05376-.1603442-.486594-.2381992-1.301291-.233565l-.0019-.1900032c.389275-.00185.879576.0009268 1.469049.010195.58762.00741.884211.012976.894406.012049.06766 0 .316981-.00741.739623-.018537.426348-.012976.744256-.020391.95187-.020391v.1890765c-.822112.00371-1.257729.082489-1.309633.239126-.05376.1594174-.07507 1.1492881-.06581 2.9751732.0093 1.9778874.04171 3.0409794.09917 3.1911284s.491228.220589 1.307778.218735v.20854l-2.028864-.03337-2.02701.04264-.0019-.202053c.819331-.0019 1.249387-.07878 1.294803-.232638zm7.698654-.297107c-.46713.545911-1.114995.820258-1.950082.825819-.956504.0028-1.722079-.312347-2.304137-.950944-.581132-.637669-.873089-1.496855-.87865-2.5729219-.0037-1.1224096.29103-2.0353521.886064-2.7499498.595035-.7118171 1.350414-1.0695794 2.264283-1.0723599.342006-.00185.638597.056538.894406.1751737.256736.1195631.506057.3188348.758159.5996689h.09732c.09547-.1390268.182589-.2799073.264151-.4198609.07693-.1399536.151076-.2919563.210394-.4606421l.15571.00185.01576 3.3106912-.188149.00185c-.23078-2.0205491-.952792-3.0271031-2.165106-3.0224688-.608937.00371-1.063091.2965904-1.375438.8814298-.312347.5885467-.466203 1.4532933-.459715 2.6007277.0083 2.3161862.676597 3.4728892 1.987156 3.4673282.694207-.0019 1.24568-.259517 1.666467-.770209.417081-.512545.626548-1.201191.623767-2.072425v-.062099l.186296-.00185c.0056.9843099-.222443 1.7461769-.688646 2.2911619zm4.398715.5696c.802648-.0028 1.318901-.03337 1.554319-.08527.230785-.05561.372592-.205759.412447-.456935.04541-.249321.05654-2.5284333.03707-6.8382636l-.05283-1.94544819-1.067726.00278c-.594107.061172-1.046408.263224-1.358755.6061568-.347567.39112859-.593181.52552119-.734988 1.72578579h-.07229l-.0139-2.59887399 4.182853-.00556 4.270903-.01761.0139 2.62204519h-.02781c-.120477-.9954663-.241893-1.0566381-.36053-1.3180085-.315127-.69235329-.900893-1.03528609-1.760079-1.03065179l-1.199337.00463-.01946 2.19940369.01483 3.1336637c.0093 2.2781858.02224 3.4756698.038 3.5970868.01668.12327.20854.216881.582059.282687.376299.06766.823038.101027 1.341145.09639l.07415.161271-5.921614.02688.06766-.162198m7.437933-.272493c.02781-.08156.04727-.440251.05746-1.070506.01112-.631181.01668-1.5292945.0102-2.6906315-.0074-1.4347564-.03615-2.2327702-.08898-2.3931144-.054688-.1594122-.487525-.2354135-1.304076-.2335598v-.1900033c.390202 0 .88143.00278 1.470904.010195.587619.00927.883283.012049.890698.011122.06951.0009268.316981-.00556.740549-.018537.428203-.012049.74333-.020391.954651-.020391l-.0019.1890764c-.820258.00556-1.256802.084343-1.307779.2400529-.05654.1575637-.07415 1.1511418-.06673 2.9751732.0093 1.9778877.04078 3.0409797.09825 3.1911277.05283.148296.492155.221516 1.306852.218736l.0028.209467-2.032571-.03337-2.02423.03985-.000927-.199272c.814697-.0037 1.244753-.08156 1.294803-.235419zm4.383422-6.2179213.101953 4.4470033c.0046.789672.08527 1.31334.24654 1.571003.195565.304932.606157.456934 1.22529.454154v.157564l-.900894-.0083c-.234491.0019-.579278.0139-1.030652.03707-.454154.0241-.787818.03337-1.005627.03522v-.167759c.482887-.0019.817478-.09454 1.005627-.279907.191857-.185369.288249-.492155.286396-.924065l-.0028-.04356-.08712-4.0048979c-.001845-.5542883-.085261-.9380022-.244679-1.1409813-.161271-.2048328-.488447-.3058589-.985236-.3040052l.0019-.1770275 1.090897.00463 1.634954-.00741 1.606223 5.0012566.0862-.0019 1.514465-5.0133063c.0899 0 .216882-.00185.384641-.0009268.167759-.0009269.289175-.00185.356835-.00185l.928698-.00463 1.15022-.00371-.002.1872227c-.7906.00371-1.20768.059318-1.23919.1686858-.0362.1065872-.051.4402515-.0491.9991392l.004.2502482.013 3.7388935c.002.235419.003.492155.005.770209 0 .273419.0167.441178.0454.50513.0556.139027.47084.207614 1.25495.202979v.168686l-1.953791-.0139-2.007547.0065.0019-.143661c.685865-.0028 1.089043-.02595 1.204899-.06766.115855-.04263.169612-.202979.167759-.482887l-.0241-5.8901011h-.162841l-1.002847 3.2847666c-.474544 1.5626607-.783184 2.6748757-.925918 3.3366427l-.366104.0019-2.151208-6.6473341zm8.956571 6.2077263c.0463-.145515.0686-.891625.063-2.237404l-.007-1.5552466c-.004-1.455147-.0315-2.2568681-.0778-2.3977486-.0473-.143661-.48289-.2113207-1.31334-.2085401v-.167759c.39112-.00371.94816-.00556 1.67202-.00927.72572-.00185 1.25032-.00463 1.5775-.00741l3.25229-.012049.009 2.7369739h-.17888c-.11585-1.0649451-.342-1.7619327-.67845-2.0816944-.33552-.3216152-.96948-.4801058-1.89818-.4754716-.19649.0009269-.38742.0009269-.57835.00185-.24932.015756-.39391.061172-.42635.1390267-.0547.1112215-.0797 1.0807016-.0723 2.9038061l.41986.00927c.58947-.00185.99172-.1353194 1.21139-.3957629.22058-.2613704.32717-.7581594.32624-1.4801719l.16498-.00185.0195 4.054948h-.16869c-.004-.74333-.10566-1.26329-.31142-1.5645148-.20205-.299371-.56259-.4485931-1.07236-.4467394l-.58762.00278c.007 1.9843757.0371 3.0622967.0862 3.2365437.0269.114002.45415.166832 1.27997.163125.88607-.0037 1.50334-.177955 1.85184-.520887.3763-.368885.64045-1.099239.79338-2.186428l.17054-.000927.008 1.867593.0148 1.060311-3.83529-.0278-3.01873.04634-.004-.220589c.82397-.0019 1.26236-.07785 1.30778-.224297zm5.89603.538925-.0139-3.1651766.15664-.0009268c.24747.9741144.60986 1.7146634 1.08904 2.2272094.47918.506984 1.03992.762793 1.6813.760013.43932-.000927.78967-.126978 1.05197-.376299.25766-.249322.38278-.578352.38186-.981529-.002-.524595-.20298-.912943-.60709-1.162264-.26878-.165906-.80728-.347567-1.6192-.5422049-.81099-.1955643-1.3986-.4467394-1.76286-.7525983-.41337-.3466401-.61913-.8304533-.62284-1.4440249.00093-.5653756.19279-1.0315787.58577-1.4013899.3902-.3679576.89533-.5533266 1.51076-.5561072.71738-.00185 1.35319.31142 1.91023.9435285.15385-.1075141.27342-.2298577.36517-.3735187.089-.143661.16128-.3382985.21689-.5802051l.10566-.0009268.0102 2.7036075-.14366.00278c-.16034-.7896721-.45879-1.406951-.90275-1.8453488-.44396-.4458126-.97689-.664548-1.58583-.6608406-.45323.00185-.81284.1149287-1.07607.3382984-.26229.2242966-.39483.5264481-.39391.9027473.003.430983.20576.7563057.61079.9694801.30679.1659053.8768.3308837 1.70633.4903011.82767.1594174 1.43383.4031777 1.80827.7294272.41523.3549817.62192.8656736.62562 1.5357826.002.647865-.20483 1.180801-.62469 1.599735-.41986.415227-.9565.623767-1.61364.629328-.7526.0019-1.41993-.363324-1.99735-1.099239-.34201.202979-.59318.573718-.74982 1.110361h-.10288"/></svg>