<svg enable-background="new 0 0 100 100" height="100" viewBox="0 0 100 100" width="100" xmlns="http://www.w3.org/2000/svg"><path clip-rule="evenodd" d="m56.899 36.308c-.013 2.596-.026 5.191-.037 7.786-.003.571.007.584.513.343 1.428-.682 2.945-.844 4.482-.66 1.573.188 2.868.982 3.896 2.18 1.148 1.338 1.795 2.9 2.002 4.647.129 1.095.168 2.196.039 3.29-.333 2.825-1.401 5.26-3.828 6.932-1.249.86-2.643 1.346-4.144 1.538-.065.009-.167-.03-.174.095-.366 0-.733 0-1.101 0-.016-.04-.033-.034-.049 0-.884 0-1.768 0-2.65 0-.002-.131-.109-.084-.17-.091-1.32-.166-2.629-.396-3.932-.665-.213-.045-.203-.162-.201-.318.063-3.865.113-7.73.119-11.596.004-2.44-.016-4.881-.079-7.32-.021-.828-.005-1.662-.28-2.47-.232-.686-.644-1.13-1.378-1.237-.115-.018-.227-.051-.34-.078-.424-.105-.57-.382-.442-.809.038-.127.14-.136.231-.154.847-.172 1.693-.344 2.542-.505 1.395-.266 2.793-.521 4.188-.792.096-.019.252.064.292-.115h.149c-.011.022-.006.042.02.039.012-.001.021-.025.031-.039.101-.001.201-.001.301-.001zm-.051 16.973c.021 0 .041-.001.061-.001 0 1.675-.009 3.35.004 5.023.006.773.057 1.548.082 2.322.006.213.106.32.318.333.082.005.165.019.248.028 1.1.126 2.015-.219 2.734-1.067.486-.571.835-1.222 1.104-1.917.961-2.485 1.085-5.059.732-7.665-.138-1.016-.453-1.997-1.012-2.873-.66-1.033-1.526-1.735-2.845-1.642-.392.027-.772.1-1.15.207-.19.053-.239.141-.243.328-.057 2.309-.026 4.617-.033 6.924zm-56.848-15.273c.588.035 1.171.099 1.736.276.865.274 1.233.966 1.46 1.762.253.888.312 1.805.347 2.719.146 3.839.116 7.68.047 11.521-.022 1.239-.064 2.481-.244 3.712-.066.452-.158.9-.343 1.322-.305.696-.809 1.146-1.569 1.287-.327.061-.65.143-.979.191-.167.023-.288.152-.455.16v.199c.006.012.013.023.017.036.001.003-.011.01-.017.015v.65c.098.146.25.132.396.133 1.691.008 3.383.019 5.075.019 2.433 0 4.866-.009 7.299-.011.215 0 .366-.033.385-.298.043-.585-.02-.792-.309-.851-.358-.072-.717-.155-1.08-.192-1.042-.105-1.654-.698-1.947-1.669-.065-.215-.123-.432-.167-.651-.184-.917-.217-1.85-.269-2.78-.097-1.715-.111-3.431-.115-5.147 0-.169.061-.21.219-.204.924.031 1.848.059 2.768.155.595.063 1.074.325 1.441.8.206.264.373.55.512.854.224.487.347 1.004.467 1.522.032.137.087.195.231.194.216-.001.433.023.649.025.381.004.339.051.339-.323.001-2.658.001-5.316.001-7.975 0-.05-.004-.101 0-.149.011-.119-.043-.164-.16-.16-.225.008-.451.021-.675.008-.251-.018-.363.076-.418.33-.145.667-.331 1.324-.703 1.908-.41.643-.964 1.078-1.746 1.157-.871.089-1.745.104-2.62.116-.236.004-.308-.052-.308-.299-.007-2.792.055-5.582.144-8.373.012-.357.056-.713.076-1.07.008-.139.066-.178.201-.177 1.3.009 2.6.009 3.9.017 1.347.009 2.503.481 3.442 1.457.507.525.888 1.141 1.221 1.787.316.615.552 1.264.813 1.902.15.368.23.402.61.304.217-.057.429-.132.647-.183.139-.033.185-.1.18-.242-.064-2.24-.043-4.482-.143-6.722-.009-.217-.074-.299-.31-.299-6.033 0-12.066-.008-18.099-.011-.649 0-1.3-.023-1.947.048 0 .4 0 .8 0 1.2zm24.95 24.45c-.013-.14-.127-.085-.198-.097-1.781-.29-3.32-1.041-4.566-2.365-1.081-1.149-1.707-2.529-2.051-4.046-.492-2.168-.506-4.346.199-6.459 1.068-3.201 3.259-5.221 6.612-5.866 1.798-.347 3.586-.233 5.313.401 2.349.865 3.829 2.574 4.637 4.903.574 1.655.684 3.36.567 5.099-.109 1.629-.572 3.139-1.435 4.517-1.29 2.062-3.172 3.271-5.536 3.761-.13.027-.263.039-.393.066-.043.009-.126-.011-.099.086-.3 0-.6 0-.9 0-.017-.041-.034-.035-.05 0-.7 0-1.401 0-2.1 0zm4.993-9.201c.019-.602-.02-1.201-.052-1.799-.063-1.182-.2-2.354-.541-3.493-.29-.97-.716-1.86-1.475-2.563-.533-.493-1.153-.637-1.85-.5-.702.137-1.155.6-1.494 1.188-.677 1.174-.889 2.481-1.025 3.8-.126 1.227-.117 2.462-.105 3.695.015 1.504.162 2.99.599 4.437.261.866.592 1.7 1.231 2.368.891.93 2.14.944 3.062.053.683-.661.981-1.512 1.2-2.399.39-1.573.419-3.182.45-4.787zm46.756 9.201c.035-.115-.063-.086-.11-.094-3.866-.582-6.604-3.441-7.208-7.354-.398-2.585-.122-5.119 1.258-7.432 1.33-2.229 3.293-3.534 5.842-3.98 1.265-.221 2.523-.203 3.764.125 1.685.447 2.959 1.451 3.818 2.963.934 1.641 1.26 3.433 1.249 5.302-.001.193-.072.229-.249.229-3.374.01-6.748.027-10.121.035-.223.001-.295.045-.286.284.052 1.392.225 2.761.874 4.013.91 1.75 2.293 2.865 4.314 3.064 1.081.106 2.144.053 3.166-.357.443-.178.838-.443 1.244-.686.193-.115.359-.182.543.039.262.314.313.475.135.725-.357.499-.816.898-1.289 1.283-1.193.968-2.572 1.503-4.076 1.748-.049.008-.144-.021-.117.092-.65 0-1.3 0-1.949 0-.018-.045-.033-.021-.051 0-.116 0-.232 0-.35 0-.016-.012-.031-.022-.047-.034-.002.012-.002.022-.004.034-.115.001-.233.001-.35.001zm.576-11.788c0-.021 0-.042 0-.063.782 0 1.564-.01 2.347.005.241.005.302-.079.274-.3-.027-.223-.035-.447-.047-.672-.045-.94-.15-1.873-.404-2.781-.138-.49-.317-.965-.629-1.376-.518-.685-1.277-.82-2.007-.362-.316.197-.571.46-.771.77-.912 1.412-1.218 3-1.341 4.641-.012.166.064.189.206.186.79-.022 1.582.004 2.372-.048zm16.825 11.788c.038-.146.163-.081.248-.096 1.855-.327 3.502-1.027 4.641-2.617.455-.636.746-1.348.913-2.109.013-.057.009-.117.063-.155.002-.002.012.005.018.01s.012.012.018.018c0-.7 0-1.399 0-2.101-.015-.01-.039-.018-.041-.029-.002-.025.018-.031.041-.02 0-.051 0-.101 0-.15-.08-.061-.078-.061-.101-.16-.159-.729-.474-1.382-.97-1.942-.734-.831-1.691-1.335-2.677-1.792-.972-.45-1.981-.82-2.917-1.351-.547-.31-1.06-.661-1.46-1.156-.459-.567-.466-1.219-.377-1.897.137-1.048 1.117-1.939 2.174-1.951 1.235-.014 2.219.498 2.978 1.457.57.721.928 1.553 1.252 2.402.27.705.306.714 1.014.452.146-.054.186-.125.182-.271-.04-1.432-.08-2.864-.105-4.297-.004-.23-.095-.328-.303-.409-1.111-.431-2.27-.626-3.447-.755-1.352-.148-2.691-.115-4.016.221-2.553.647-4.404 2.724-4.556 5.076-.132 2.05.565 3.685 2.333 4.804.764.483 1.613.784 2.445 1.121.848.344 1.697.685 2.457 1.206.398.272.74.598.93 1.053.582 1.412-.254 3.145-1.744 3.479-1.574.354-2.928-.095-3.991-1.337-.725-.847-1.2-1.833-1.614-2.854-.229-.564-.281-.588-.873-.399-.04.013-.078.032-.117.043-.14.041-.191.126-.188.276.047 1.591.084 3.182.128 4.772.011.415.017.421.419.563 1.15.406 2.344.619 3.545.8.072.011.184-.04.199.097 1.165-.002 2.333-.002 3.499-.002zm-37.551-26.15c-.011.022-.006.042.02.039.012-.001.021-.025.031-.039-.017 0-.034 0-.051 0zm43.451 19.05c-.023-.012-.043-.006-.041.02.002.012.026.02.041.029 0-.015 0-.033 0-.049zm-100 5.85c.006-.005.018-.012.017-.015-.004-.012-.012-.024-.017-.036zm27.1 1.25c-.017-.041-.034-.035-.05 0zm31.449 0c-.016-.04-.033-.034-.049 0zm18.551 0c-.016-.012-.031-.022-.047-.034-.002.012-.002.022-.004.034zm.4 0c-.018-.045-.033-.021-.051 0zm-34.282-15.315c.042-1.114.083-2.229.125-3.343.012-.318-.007-.339-.307-.283-2.361.436-4.714.916-7.064 1.402-.522.107-.543.145-.521.68.001.017.001.033.001.05.003.158.079.237.24.263.262.041.521.107.783.146.676.103 1.052.52 1.23 1.15.177.623.211 1.265.233 1.903.073 2.165.08 4.331.032 6.497-.025 1.165-.03 2.331-.168 3.491-.107.897-.575 1.458-1.421 1.643-.235.052-.475.085-.71.135-.083.017-.182.021-.182.157 0 .216-.023.432-.026.648-.002.188.058.319.291.296.131-.013.266.013.399.013 2.291.006 4.582.012 6.873.014 1 .001 2-.01 2.999-.005.186.001.254-.055.25-.238-.005-.216.011-.433.018-.649.004-.158-.057-.237-.231-.25-.348-.023-.695-.068-1.042-.109-.48-.055-.94-.154-1.237-.596-.17-.252-.269-.532-.33-.828-.185-.893-.202-1.803-.237-2.707-.094-2.398-.08-4.797-.015-7.196.012-.438.2-.717.58-.903.869-.428 1.778-.523 2.722-.341.626.121 1.195.401 1.769.665.206.096.321.075.414-.157.576-1.443 1.133-2.894 1.642-4.362.114-.329.077-.413-.229-.57-.066-.034-.134-.068-.205-.092-1.074-.335-2.146-.358-3.202.063-1.29.514-2.221 1.439-2.936 2.605-.167.273-.324.553-.486.83-.019-.009-.036-.016-.052-.022z" fill-rule="evenodd"/></svg>