<svg viewBox="0 0 89.5 20.6" xmlns="http://www.w3.org/2000/svg"><path d="m11.5 4.7v11.2a4.75 4.75 0 0 0 9.5 0v-11.2a4.75 4.75 0 0 0 -9.5 0m3.4 11.2v-11.2a1.29 1.29 0 0 1 1.4-1.3 1.26 1.26 0 0 1 1.3 1.3v11.2a1.32 1.32 0 0 1 -1.3 1.3 1.35 1.35 0 0 1 -1.4-1.3m33.5-15.7h-9.6v3.4h3.1v16.7h3.4v-16.7h3.1zm10 0v15.7a1.3 1.3 0 1 1 -2.6 0v-15.7h-3.5v15.7a4.8 4.8 0 0 0 9.6 0v-15.7zm31.1 3.4v-3.4h-8.4v20.1h8.4v-3.4h-5v-5.2h3.2v-3.4h-3.2v-4.7zm-53.9 16.7h-3.6l-2.5-9.5a2.73 2.73 0 0 0 2.2-2.7v-3.1a1.37 1.37 0 0 0 -1.4-1.4h-1.3v16.7h-3.4v-20.1h4.7a4.76 4.76 0 0 1 4.8 4.6v3.2a5.37 5.37 0 0 1 -1.9 4.4zm37.9-20.1v11l-3.5-11h-3.5v20.1h3.5v-9.8l3.2 9.8h3.8v-20.1zm-73.5.3v20.1h3.6v-8.6h3.3v-3.4h-3.3v-4.7h5.2v-3.4z"/></svg>