<svg fill="none" height="24" viewBox="0 0 100 24" width="100" xmlns="http://www.w3.org/2000/svg"><path d="m40.7734 23.3706h-9.3515v-3.1506h.9335c.4167 0 .5501-.2333.5501-.6167v-7.9013c0-.3834-.1501-.6168-.5501-.6168h-.9335v-3.25056h8.2847v2.35036c1.0002-1.83361 2.5838-2.68375 4.8175-2.68375 3.0338 0 4.1173 1.16686 4.4674 2.96715.9335-2.067 2.5837-2.96715 4.9341-2.96715 3.8507 0 4.5841 1.86698 4.5841 4.65075v7.4679c0 .3834.1834.6168.6501.6168h.8002v3.1505h-9.2016v-3.1672h.3834c.3834 0 .5501-.2333.5501-.6167v-6.7512c0-1.2835-.2834-1.6836-1.1835-1.6836-1.1835 0-1.4002.9669-1.4002 2.4838v5.9176c0 .4168.1833.6501.5501.6501h.5v3.1506h-8.8181v-3.1506h.3834c.3834 0 .5501-.2333.5501-.6167v-6.7512c0-1.2835-.2834-1.6836-1.1835-1.6836-1.1836 0-1.4003.9669-1.4003 2.4838v5.9176c0 .4168.15.6501.5501.6501h.5001v3.1506zm24.5541-23.3706c1.8837 0 3.4173 1.55026 3.4173 3.45057 0 1.86698-1.5336 3.41724-3.4173 3.41724-1.8503 0-3.3839-1.55026-3.3839-3.41724 0-1.90031 1.5336-3.45057 3.3839-3.45057zm-3.3505 11.6853c0-.3834-.15-.6168-.5501-.6168h-.9335v-3.25053h8.2847v11.75193c0 .4168.15.6501.5501.6501h.8835v3.1506h-9.735v-3.1506h.9335c.4168 0 .5501-.2333.5501-.6167v-7.918zm18.103 11.6853h-9.3516v-3.1506h.9335c.4168 0 .5501-.2333.5501-.6167v-7.9013c0-.3834-.15-.6168-.5501-.6168h-.9335v-3.25056h8.2848v2.38376c.9334-1.86701 2.5004-2.70048 5.0508-2.70048 3.5506 0 4.4674 1.86698 4.4674 4.65078v7.4679c0 .3834.15.6168.6168.6168h.8335v3.1505h-9.3183v-3.1839h.5001c.3834 0 .5501-.2333.5501-.6167v-6.7512c0-1.2835-.3167-1.6836-1.1835-1.6836-1.1836 0-1.5336.9669-1.5336 2.4838v5.9176c0 .4168.15.6501.5501.6501h.5001zm8.9348-15.55263 1.6503-.10002.2667-3.55059h6.2844v3.61727h2.6338v3.20057h-2.6505v6.7511c0 1.8336.3501 2.4337 2.3504 2.4337h.4501v3.1506c-1.3169.15-2.7005.2-4.0173.2-3.634 0-5.3009-1.1002-5.551-4.2174v-8.2847h-1.4002z" fill="#f7941d"/><path d="m3.76729 20.6868c0 .5834 0 1.0168.05001 1.3669.10002.4167.33339.6167.58343.7501.20004.1.41674.1334.61677.15v.2001h-5.0175v-.2001c.200033-.0166.450075-.0667.583431-.15.28338-.1334.500079-.3334.566759-.6668.10002-.4.10002-.8168.10002-1.4502v-10.3684c0-.33341 0-1.1002-.05001-1.40025-.10002-.31672-.20003-.51675-.383397-.65011-.216703-.15002-.400068-.18336-.7501262-.20003v-.18337h3.5839332c.10002 0 .15002.01667.15002.18337 0 .45007-.01667.98349-.01667 1.81697v10.80182zm3.1672-10.6185c0-.81676.58343-1.4502 1.45024-1.4502s1.45024.65011 1.45024 1.4502c0 .8002-.58343 1.4503-1.45024 1.4503s-1.45024-.6501-1.45024-1.4503zm2.75046 10.7018c0 .5501.01667.9668.10001 1.2669.10002.4501.30004.6168.58344.7501.15.1.3834.1334.6001.15v.2001h-5.01751v-.2001c.20003-.0166.45008-.0666.6001-.15.26671-.1333.48342-.35.55009-.6501.10002-.35.10002-.7834.10002-1.4002v-5.1842c0-.3501 0-1.1502-.05001-1.4169-.06668-.3001-.20003-.5168-.40006-.6168-.18337-.1333-.3834-.2-.78347-.2v-.2001h3.6006c.10002 0 .15003.0167.15003.1501-.01667.4667-.05001.9668-.05001 1.8169zm10.95185-7.2845c-.2001.1333-.3834.2667-.5001.5501-.1834.2667-.4501.8501-.7001 1.6169l-2.7005 7.5679h-1.2002l-2.5004-7.0845c-.2667-.7168-.5334-1.4502-.6501-1.7503-.2-.45-.3501-.7001-.6001-.8668-.2167-.15-.4667-.2-.7001-.25v-.1834h5.2675v.1834c-.3.0166-.6001.1-.8001.1833-.1834.1001-.2834.3834-.2834.6668 0 .3501.1334.8001.3834 1.5669l1.5503 4.9175h.05l1.7003-4.8341c.2833-.8001.3834-1.2502.3834-1.5836 0-.4167-.1834-.6168-.3834-.7501-.2001-.1001-.4168-.1501-.6501-.1834v-.1834h2.9171v.1834c-.1834.0667-.4001.1167-.5834.2334zm3.2338 3.7006h3.3339c.5668 0 .7335-.15.7335-.9668 0-1.2169-.2-2.0337-.5834-2.4838-.3001-.3167-.6501-.4667-1.2336-.4667-.5001 0-.9501.1833-1.3002.5501-.4834.5-.8335 1.8003-.9502 3.3672zm2.3171 6.1844c-1.5003 0-2.6838-.4668-3.5339-1.3003-1.0335-1.0001-1.4836-2.3837-1.4836-3.8839 0-3.1506 2.2337-5.3009 4.9342-5.3009 2.9338 0 4.2173 2.0503 4.2173 3.8339 0 .2501 0 .6001-.05.8502h-6.4344v.4667c0 1.9004.3334 3.2172.8835 3.834.4834.5334 1.1668.8001 1.9503.8001 1.9503 0 2.8838-1.3669 3.2839-2.7838l.3834.1001c-.5334 1.9503-1.8336 3.3839-4.1507 3.3839z" fill="#000"/></svg>