<svg id="Layer_1" data-name="Layer 1" xmlns="http://www.w3.org/2000/svg" viewBox="0 0 300 120"><defs><style>.cls-1{fill:#e00;}</style></defs><title>ndtv</title><g id="_000000ff" data-name="#000000ff"><path d="M35,39.65c5.28,0,10.55-.09,15.83,0,6.24.36,11.78,4.59,14.76,10,3,5.7,5.67,11.59,8.73,17.27a6.16,6.16,0,0,0,5.27,3.46c-.08-10.25,0-20.5,0-30.75,4.63,0,9.26,0,13.87,0,0,4.47,0,8.93-.05,13.4-3.21,1.23-5.9,4.08-6,7.66-.44,3.91,2.44,7.38,6,8.62.06,4.49,0,9,0,13.46-4.59,0-9.19,0-13.78,0a17.61,17.61,0,0,1-14-6.24C61.89,72,60,66.26,57.07,61.13c-1.94-3.56-3.32-9-8.24-9.18,0,10.27,0,20.54,0,30.81-4.62.07-9.24,0-13.86,0Q35.07,61.22,35,39.65Z"/><path d="M97.48,39.67c39.12,0,78.25-.11,117.38,0,5.82,10.61,11.8,21.13,17.59,31.76,5.78-10.53,11.1-21.32,16.84-31.86,4.91.09,9.81-.07,14.73.11a40,40,0,0,0-2.34,3.67c-6.9,13.15-13.89,26.28-20.84,39.41H224c-6.06-11-12.27-21.93-18.35-32.92-6.17-.07-12.35,0-18.52,0,0,11,.05,22,0,32.94-4.43,0-8.87,0-13.3,0,0-11,.06-22,0-33-6.8.07-13.61,0-20.4,0,1.23,4.72,1.12,9.62,1,14.46S152.85,74.44,149.19,78c-3.51,3.62-8.78,4.87-13.68,4.85-12.66,0-25.32,0-38,0,0-4.49,0-9,.06-13.46,3-1.16,5.61-3.66,5.89-7,.65-4.07-2.17-7.87-5.9-9.24-.07-4.47,0-8.94-.1-13.4M111,49.93c.12,7.5,0,15,.05,22.52,7.58.1,15.16,0,22.74,0,3,.13,6.49-1.51,6.9-4.78.24-4.19.18-8.4,0-12.6-.29-3.41-3.84-5.3-7-5.24C126.14,49.85,118.55,49.75,111,49.93Z"/></g><g id="_ee0000ff" data-name="#ee0000ff"><path class="cls-1" d="M87.4,60.7c.08-3.58,2.77-6.43,6-7.66a18.44,18.44,0,0,1,4.2,0c3.73,1.37,6.55,5.17,5.9,9.24-.28,3.34-2.9,5.84-5.89,7a21.05,21.05,0,0,1-4.2,0C89.84,68.08,87,64.61,87.4,60.7Z"/></g></svg>