<svg fill="none" height="34" viewBox="0 0 101 34" width="101" xmlns="http://www.w3.org/2000/svg" xmlns:xlink="http://www.w3.org/1999/xlink"><clipPath id="a"><path d="m.023438.289062h100v33.6087h-100z"/></clipPath><g clip-path="url(#a)" fill="#ff2626"><path d="m100.024.289062v33.608738h-100.0005625v-33.608738zm-1.9529 1.933878h-95.77578c-.37122 0-.33633-.04204-.33633.33885v29.03551c0 .417-.04203.359.35567.359h44.22944 51.527z"/><path d="m46.296 25.1823h-2.6334c-.0576-.224-.1198-.457-.177-.6915-.4204-1.738-.8467-3.4756-1.2612-5.2156-.0454-.1901-.1119-.2674-.3183-.2573-.3843.0185-.7698.005-1.1553.0054-.259 0-.2594 0-.2594.2695v5.6058.2812h-2.4274v-16.30595c.0744-.00421.1488-.01219.2228-.01219 1.2818 0 2.5645-.00253 3.8451 0 .6222 0 1.228.10215 1.7976.36071 1.0166.46245 1.5522 1.29313 1.759 2.35433.0651.3434.0998.6918.1039 1.0413.013.8829.0088 1.7632 0 2.6448-.0122 1.0472-.4204 1.928-1.1658 2.654-.1127.1098-.132.2073-.0954.3494.5672 2.199 1.1321 4.3991 1.6946 6.6004.024.0971.0442.1993.0702.3157zm-5.7924-8.5763h1.4492c.0983.0017.1967-.0036.2943-.016.5919-.0891 1.1376-.6445 1.1531-1.2448.0249-.943.0257-1.8876-.0033-2.8302-.021-.668-.4751-1.1065-1.1406-1.1414-.5465-.0286-1.0931-.0147-1.6362-.0172-.04.0052-.0792.0157-.1165.0311z"/><path d="m80.7264 25.3193c-.0871.0051-.1425.0106-.1976.011-.7353 0-1.4714-.0059-2.2059.0046-.177.0025-.24-.0601-.2795-.2237-.4485-1.8682-.9013-3.7356-1.3584-5.6019-.0163-.0534-.0293-.1077-.0391-.1627-.0143-.1228-.0819-.1598-.2001-.1585-.4343.0046-.8685.008-1.3032 0-.1644-.0034-.1985.0618-.1972.2102.0067.7483.0034 1.4971.0034 2.2442v3.6672h-2.4132v-16.21981c.0499-.01186.1007-.01946.1518-.0227 1.3588 0 2.7175-.01051 4.0754.01219.7895.01345 1.5408.20516 2.1861.69115.7181.54147 1.0737 1.29737 1.2003 2.16047.0591.4505.0872.9045.084 1.3588.0055.8109.0089 1.6236-.0336 2.4333-.0479.9114-.4515 1.6795-1.0972 2.3156-.1455.1434-.1712.2665-.122.457.5701 2.1979 1.135 4.3972 1.6947 6.5979.0193.0685.0332.1366.0513.2257zm-5.7776-8.5481c.5688 0 1.1073.0248 1.6425-.0063.6768-.0395 1.2423-.6142 1.2612-1.2915.0235-.9014.0248-1.8044-.003-2.7054-.0218-.7033-.4069-1.1157-1.1123-1.1906-.4986-.0529-1.0061-.026-1.5093-.0315-.2791-.0029-.2791 0-.2791.2695v4.6981z"/><path d="m26.4999 17.0276v4.4509c-.0034 1.9217-1.3004 3.4894-3.1859 3.8526-2.1222.4112-4.194-1.0174-4.5623-3.1501-.0375-.2207-.0562-.4442-.0559-.668-.0039-2.9956-.0039-5.9907 0-8.9854 0-1.8389 1.289-3.44988 3.0951-3.80428 2.7629-.54191 4.7451 1.65258 4.7157 3.79078-.0231 1.5043-.0067 3.0093-.0067 4.5135zm-2.5519-.0201v-.1888c0-1.4415 0-2.8827 0-4.3239 0-.5709-.2716-.9964-.7681-1.2566s-.9909-.2258-1.4529.0841c-.4469.3001-.6399.7332-.6391 1.2717.0051 2.9249.0059 5.8494.0026 8.7735 0 .0702 0 .1404.0079.2102.0173.1974.0755.389.1709.5626s.226.3254.3833.4458.338.2067.5306.2534c.1925.0467.3926.0528.5876.0179.3315-.0539.6326-.225.8486-.4821.2161-.2572.3326-.5833.3286-.9191.0025-1.4824 0-2.9668 0-4.4487z"/><path d="m71.6016 17.1987c0 1.4765.0029 2.953 0 4.4294-.0038 1.7102-1.0426 3.1989-2.646 3.6996-2.6255.8219-4.7401-.9606-5.0739-3.0269-.0316-.2005-.0471-.4033-.0463-.6063-.003-3.0087-.003-6.0177 0-9.027 0-2.0831 1.7325-3.77691 3.8182-3.81558 2.0944-.0391 3.5066 1.52358 3.8164 2.85878.0808.3538.1231.7154.1261 1.0783.0139 1.4706.0055 2.94.0055 4.4097zm-5.3917-.045v4.4299c-.0017.3068.0948.6062.2752.8544.1805.2482.4355.4323.7279.5253.5982.185 1.2263-.0319 1.5975-.5465.2102-.2943.2582-.6281.2582-.9762v-8.5658c0-.0559 0-.1122 0-.1682-.0274-.6243-.3124-1.0892-.8943-1.328-.945-.3876-1.9595.3123-1.9628 1.3453-.0055 1.4773-.0017 2.9533-.0017 4.4298z"/><path d="m28.4064 8.87256h2.3791v.28798 12.21536c0 .6592.322 1.1721.8769 1.4042.9649.404 1.9848-.2855 1.9852-1.3453 0-4.0861 0-8.1719 0-12.25745v-.30227h2.5418c.0034.07231.0097.14588.0097.21945v12.46767c0 2.0289-1.6114 3.7033-3.6437 3.8042-1.7884.0892-3.3099-.8727-3.9195-2.4804-.1607-.4264-.2419-.8787-.2396-1.3343 0-4.1697 0-8.3394 0-12.5093 0-.04666.0055-.09627.0101-.16984z"/><path d="m47.0091 20.9303 2.29-.164c.0336.1905.0475.3784.1026.5545.1194.3784.2186.7707.4002 1.1188.351.6726.9207.948 1.5475.8185.6365-.1312 1.1528-.7147 1.2575-1.3924.161-1.0418-.2712-1.859-.9783-2.5578-.8509-.8408-1.7397-1.6442-2.5851-2.4905-.61-.6104-1.1616-1.2784-1.4605-2.1058-.4835-1.3407-.494-2.6822.1513-3.9707.5256-1.05107 1.4059-1.66739 2.578-1.83134.8963-.12613 1.7762-.06054 2.6065.3338 1.0746.51038 1.6501 1.40964 1.9339 2.52584.0567.2228.084.4532.1223.6802.0031.043.0031.0861 0 .1291l-2.3122.4204c-.037-.1863-.0526-.3628-.1089-.5251-.0959-.2754-.1934-.5554-.3338-.8097-.2598-.4709-.6928-.6533-1.2171-.621-.4994.0307-.8299.3132-1.0254.7538-.3186.7202-.2741 1.4462.0223 2.1597.2783.6726.7193 1.2305 1.2558 1.7127.5364.4822 1.0897.9249 1.6076 1.4147.9249.8782 1.6766 1.8851 2.0407 3.127.4393 1.4987.1627 2.8785-.7917 4.1128-.412.5327-.9787.8535-1.6206 1.0304-.89.246-1.7901.2493-2.673-.0176-1.112-.3363-1.8384-1.1082-2.3068-2.1441-.3085-.6832-.4624-1.4046-.5112-2.1504.0006-.0374.0034-.0747.0084-.1118z"/><path d="m15.1081 25.1806h-2.443v-.301c0-2.0847-.0013-4.1696-.0038-6.2548-.0001-.1738-.0285-.3463-.0841-.5108-1.0322-2.9844-2.068-5.9676-3.1072-8.9497-.03364-.09796-.06432-.19675-.10342-.31531.07399-.00589.13369-.01513.19296-.01513.76346 0 1.52646.00294 2.28996-.00379.1471 0 .2216.0349.2678.18666.5016 1.63627 1.0229 3.26657 1.511 4.90697.1345.4524.1753.9325.2598 1.4.0072.054.0342.1034.0756.1387.0143-.103.0366-.206.0421-.3094.042-.9766.3611-1.8885.6449-2.8092.3394-1.1017.6742-2.2047 1.0043-3.30899.0463-.15555.1115-.20726.2737-.20516.7631.00841 1.5265.00336 2.2896.00421.0609 0 .1223.00588.2072.01051-.1778.51205-.3485 1.00435-.52 1.49663-.9 2.5785-1.7989 5.158-2.6969 7.7385-.0623.1842-.0943.3773-.0946.5717-.0067 2.0777-.0042 4.1558-.0042 6.2339z"/><path d="m89.6031 9.10169c-.14.40443-.2754.79877-.4129 1.19271-.9425 2.7049-1.8844 5.4095-2.8255 8.1139-.0446.1313-.0676.269-.0681.4078-.0042 2.1056-.0052 4.2116-.0029 6.3179v.2879h-2.4325c-.0055-.1009-.0143-.1963-.0143-.2917 0-2.071-.0067-4.1419.0046-6.2128.0021-.3948-.1534-.7349-.2753-1.0885-.9832-2.8458-1.9699-5.6906-2.9601-8.53424-.0202-.05844-.0387-.11772-.0643-.19718.071-.00588.1299-.01555.1887-.01555.7702 0 1.5404.00378 2.3122-.00463.1476 0 .2065.04751.2481.18246.5015 1.62904 1.0207 3.25274 1.5059 4.88684.1383.4658.1816.9598.269 1.4411.0072.0396.0177.0787.0337.1485.0294-.0421.0534-.0627.0542-.0841.042-1.2264.4574-2.3665.8093-3.5214.2934-.9621.5864-1.9245.8791-2.88691.0306-.10216.0634-.16817.1938-.16817.8193.00631 1.6395.00337 2.4576.00421.0338.00482.0671.01212.0997.02186z"/><path d="m63.1285 9.0806v2.4266h-.2523c-.6861 0-1.3728 0-2.06 0-.2762 0-.2771 0-.2771.2733v13.532h-2.4278v-13.7952h-2.5948v-2.43838z"/></g></svg>