<svg height="768" viewBox="0 0 1024 768" width="1024" xmlns="http://www.w3.org/2000/svg"><g fill="#70b3bf" transform="matrix(1.67 0 0 1.67 -344.820111 430.95372)"><path d="m436.12887-55.512c-2.664-.936-5.832-1.44-9.432-1.44-5.184 0-9.864 1.296-14.112 3.888-4.24799 2.592-7.56 6.048-10.008 10.44s-3.672 9.216-3.672 14.472c0 5.328 1.224 10.224 3.672 14.616 2.448 4.464 5.76001 7.92 10.008 10.44 4.248 2.592 8.928 3.816 14.112 3.816 6.552 0 12.456-2.088 17.64001-6.264.71999-.72 1.15199-1.656 1.15199-2.664s-.36-1.872-.93599-2.52c-.57601-.648-1.368-1.008-2.23201-1.008-.792 0-1.584.288-2.37599.864-4.24801 3.168-8.64001 4.752-13.24801 4.752-3.744 0-7.2-.936-10.368-2.952-3.168-1.944-5.616-4.608-7.488-7.992-1.87199-3.312-2.736-7.056-2.736-11.088 0-3.96.86401-7.632 2.736-11.016 1.872-3.384 4.32-6.048 7.488-8.064 3.168-1.944 6.624-2.952 10.368-2.952 2.952 0 5.4.432 7.27201 1.152 1.87199.72 3.74399 1.944 5.76 3.6.71999.648 1.584.936 2.51999.936.86401 0 1.656-.288 2.376-.936.72-.576 1.08001-1.368 1.08001-2.376 0-.576-.14401-1.152-.28801-1.584-.216-.432-.576-.936-1.15199-1.368-2.73601-2.16-5.47201-3.744-8.13601-4.752z"/><path d="m491.58912-19.656c0-3.672-.936-7.128-2.664-10.152-1.72799-3.024-4.104-5.472-7.128-7.2s-6.336-2.664-10.00799-2.664c-3.74401 0-7.128.936-10.152 2.664s-5.40001 4.176-7.12801 7.2-2.592 6.408-2.592 10.152.792 7.2 2.376 10.224 3.816 5.4 6.624 7.128c2.88 1.8 5.976 2.664 9.43201 2.664h.57599 17.208c.936 0 1.72801-.36 2.448-1.008.648-.648 1.008-1.44 1.008-2.448v-.504zm-30.96 6.912c-1.152-2.016-1.656-4.32-1.656-6.912 0-2.52.504-4.824 1.656-6.912 1.152-2.016 2.664-3.672 4.608-4.824s4.104-1.8 6.55201-1.8c2.37599 0 4.536.648 6.47999 1.8 1.944 1.152 3.456 2.808 4.608 4.824 1.08001 2.088 1.656 4.392 1.656 6.912 0 2.592-.57599 4.896-1.656 6.912-1.152 2.016-2.664 3.672-4.608 4.824-1.94399 1.152-4.104 1.728-6.47999 1.728-2.44801 0-4.60801-.576-6.55201-1.728s-3.456-2.808-4.608-4.824z"/><path d="m527.86137-38.664c-1.44-.72-3.45599-1.152-5.976-1.152-2.448 0-4.68.504-6.76799 1.44-2.16001 1.008-3.88801 2.304-5.32801 3.96v-1.368c0-2.376-1.22399-3.6-3.6-3.6-1.152 0-2.08799.36-2.664.936-.648.648-.93599 1.512-.93599 2.664v32.184c0 1.224.28799 2.16.93599 2.736.57601.576 1.512.864 2.664.864s2.088-.288 2.66401-.936c.57599-.576.93599-1.512.93599-2.664v-21.024c0-2.664 1.008-4.824 3.168-6.408 2.08801-1.584 4.89601-2.376 8.35201-2.376 1.15199 0 2.736.216 4.67999.504.432.144.79201.144 1.08001.144 1.43999 0 2.448-.72 2.88-2.304 0-.144.072-.36.072-.72 0-1.152-.72001-2.088-2.16001-2.88z"/><path d="m532.7045-19.728c0 3.816.864 7.2 2.592 10.224s4.176 5.472 7.2 7.2 6.408 2.592 10.08 2.592h.288.144 15.912c1.008 0 1.8-.288 2.448-.936.72-.72 1.008-1.512 1.008-2.448v-15.336-1.296-32.832c0-1.08-.288-1.944-1.008-2.664-.648-.648-1.512-1.008-2.664-1.008-1.008 0-1.872.36-2.592 1.008-.72.72-1.08 1.584-1.08 2.664v19.44c-1.656-2.016-3.672-3.6-6.12-4.824-2.376-1.152-4.968-1.728-7.776-1.728-3.456 0-6.552.864-9.36 2.592-2.808 1.8-5.04 4.176-6.624 7.2s-2.448 6.48-2.448 10.152zm7.056 0c0-2.52.576-4.824 1.728-6.84s2.664-3.672 4.608-4.824 4.104-1.8 6.48-1.8c2.448 0 4.608.648 6.552 1.8s3.456 2.808 4.536 4.824c1.152 2.016 1.656 4.32 1.656 6.84 0 2.592-.504 4.896-1.656 6.912-1.08 2.088-2.592 3.744-4.536 4.896s-4.104 1.728-6.552 1.728c-2.376 0-4.536-.576-6.48-1.728s-3.456-2.808-4.608-4.896c-1.152-2.016-1.728-4.32-1.728-6.912z"/><path d="m587.2175-55.152c-.72.72-1.08 1.584-1.08 2.664v48.744c0 1.08.36 1.944 1.08 2.664s1.584 1.08 2.664 1.08 1.944-.36 2.664-1.08 1.08-1.584 1.08-2.664v-48.744c0-1.08-.36-1.944-1.08-2.664s-1.584-1.08-2.664-1.08-1.944.36-2.664 1.08z"/><path d="m609.011-37.944v6.192 17.784c0 2.664.504 5.04 1.656 7.128 1.08 2.16 2.592 3.816 4.536 5.04s4.104 1.8 6.48 1.8h1.296c1.224 0 2.232-.288 3.024-1.008.792-.648 1.224-1.512 1.224-2.592 0-1.008-.36-1.872-.936-2.592-.576-.648-1.296-1.008-2.16-1.008h-2.448c-1.584 0-2.88-.648-3.888-1.944-1.08-1.296-1.584-2.88-1.584-4.824v-17.784h6.12c1.008 0 1.8-.288 2.448-.864.576-.576.936-1.296.936-2.16 0-.936-.36-1.728-.936-2.304-.648-.576-1.44-.864-2.448-.864h-6.12v-10.368c0-1.008-.36-1.872-1.008-2.592-.72-.648-1.584-1.008-2.592-1.008-1.08 0-1.944.36-2.592 1.008-.72.72-1.008 1.584-1.008 2.592z"/></g></svg>