<svg xmlns:dc="http://purl.org/dc/elements/1.1/" xmlns:cc="http://creativecommons.org/ns#" xmlns:rdf="http://www.w3.org/1999/02/22-rdf-syntax-ns#" xmlns:svg="http://www.w3.org/2000/svg" xmlns="http://www.w3.org/2000/svg" xmlns:xlink="http://www.w3.org/1999/xlink" id="svg174032" viewBox="0 0 1024 768" height="768px" width="1024px" version="1.1">
  <metadata id="metadata174038">
    <rdf:rdf>
      <cc:work rdf:about="">
        <dc:format>image/svg+xml</dc:format>
        <dc:type rdf:resource="http://purl.org/dc/dcmitype/StillImage"></dc:type>
      </cc:work>
    </rdf:rdf>
  </metadata>
  <defs id="defs174036"></defs>
  <linearGradient spreadMethod="pad" y2="30%" x2="-10%" y1="120%" x1="30%" id="3d_gradient2-logo-4ca9cb98-e6d7-4425-bcd8-cd1f240cc13e">
    <stop id="stop174013" stop-opacity="1" stop-color="#ffffff" offset="0%"></stop>
    <stop id="stop174015" stop-opacity="1" stop-color="#000000" offset="100%"></stop>
  </linearGradient>
  <linearGradient gradientTransform="rotate(-30)" spreadMethod="pad" y2="30%" x2="-10%" y1="120%" x1="30%" id="3d_gradient3-logo-4ca9cb98-e6d7-4425-bcd8-cd1f240cc13e">
    <stop id="stop174018" stop-opacity="1" stop-color="#ffffff" offset="0%"></stop>
    <stop id="stop174020" stop-opacity="1" stop-color="#cccccc" offset="50%"></stop>
    <stop id="stop174022" stop-opacity="1" stop-color="#000000" offset="100%"></stop>
  </linearGradient>
  <g id="logo-group">
    <image xlink:href="" id="container" x="272" y="144" width="480" height="480" style="display: none;" transform="translate(0 0)"></image>
    <g id="logo-center" transform="translate(0 0)">
      <image xlink:href="" id="icon_container" style="display: none;" x="0" y="0"></image>
      <g id="slogan" style="font-style:normal;font-weight:700;font-size:32px;line-height:1;font-family:'Maven Pro';font-variant-ligatures:none;text-align:center;text-anchor:middle" transform="translate(0 0)"></g>
      <g id="title" style="font-style:normal;font-weight:700;font-size:72px;line-height:1;font-family:'Comfortaa Bold Alt1';font-variant-ligatures:none;text-align:center;text-anchor:middle" transform="translate(0 0)">
        <path id="path174041" style="font-style:normal;font-weight:700;font-size:72px;line-height:1;font-family:'Comfortaa Bold Alt1';font-variant-ligatures:none;text-align:center;text-anchor:middle" d="m 436.12887,-55.512 c -2.664,-0.936 -5.832,-1.44 -9.432,-1.44 -5.184,0 -9.864,1.296 -14.112,3.888 -4.24799,2.592 -7.56,6.048 -10.008,10.44 -2.448,4.392 -3.672,9.216 -3.672,14.472 0,5.328 1.224,10.224 3.672,14.616 2.448,4.464 5.76001,7.92 10.008,10.44 4.248,2.592 8.928,3.816 14.112,3.816 6.552,0 12.456,-2.088 17.64001,-6.264 0.71999,-0.72 1.15199,-1.656 1.15199,-2.664 0,-1.008 -0.36,-1.872 -0.93599,-2.52 -0.57601,-0.648 -1.368,-1.008 -2.23201,-1.008 -0.792,0 -1.584,0.288 -2.37599,0.864 -4.24801,3.168 -8.64001,4.752 -13.24801,4.752 -3.744,0 -7.2,-0.936 -10.368,-2.952 -3.168,-1.944 -5.616,-4.608 -7.488,-7.992 -1.87199,-3.312 -2.736,-7.056 -2.736,-11.088 0,-3.96 0.86401,-7.632 2.736,-11.016 1.872,-3.384 4.32,-6.048 7.488,-8.064 3.168,-1.944 6.624,-2.952 10.368,-2.952 2.952,0 5.4,0.432 7.27201,1.152 1.87199,0.72 3.74399,1.944 5.76,3.6 0.71999,0.648 1.584,0.936 2.51999,0.936 0.86401,0 1.656,-0.288 2.376,-0.936 0.72,-0.576 1.08001,-1.368 1.08001,-2.376 0,-0.576 -0.14401,-1.152 -0.28801,-1.584 -0.216,-0.432 -0.576,-0.936 -1.15199,-1.368 -2.73601,-2.16 -5.47201,-3.744 -8.13601,-4.752 z" stroke-width="0" stroke-linejoin="miter" stroke-miterlimit="2" fill="#70b3bf" stroke="#70b3bf" transform="translate(0 324.00172) translate(321.35102145000013 11.842160000000007) scale(1.67) translate(-398.90487 56.952)"></path>
        <path id="path174043" style="font-style:normal;font-weight:700;font-size:72px;line-height:1;font-family:'Comfortaa Bold Alt1';font-variant-ligatures:none;text-align:center;text-anchor:middle" d="m 491.58912,-19.656 c 0,-3.672 -0.936,-7.128 -2.664,-10.152 -1.72799,-3.024 -4.104,-5.472 -7.128,-7.2 -3.024,-1.728 -6.336,-2.664 -10.00799,-2.664 -3.74401,0 -7.128,0.936 -10.152,2.664 -3.024,1.728 -5.40001,4.176 -7.12801,7.2 -1.728,3.024 -2.592,6.408 -2.592,10.152 0,3.744 0.792,7.2 2.376,10.224 1.584,3.024 3.816,5.4 6.624,7.128 2.88,1.8 5.976,2.664 9.43201,2.664 h 0.57599 17.208 c 0.936,0 1.72801,-0.36 2.448,-1.008 0.648,-0.648 1.008,-1.44 1.008,-2.448 V -3.6 Z m -30.96,6.912 c -1.152,-2.016 -1.656,-4.32 -1.656,-6.912 0,-2.52 0.504,-4.824 1.656,-6.912 1.152,-2.016 2.664,-3.672 4.608,-4.824 1.944,-1.152 4.104,-1.8 6.55201,-1.8 2.37599,0 4.536,0.648 6.47999,1.8 1.944,1.152 3.456,2.808 4.608,4.824 1.08001,2.088 1.656,4.392 1.656,6.912 0,2.592 -0.57599,4.896 -1.656,6.912 -1.152,2.016 -2.664,3.672 -4.608,4.824 -1.94399,1.152 -4.104,1.728 -6.47999,1.728 -2.44801,0 -4.60801,-0.576 -6.55201,-1.728 -1.944,-1.152 -3.456,-2.808 -4.608,-4.824 z" stroke-width="0" stroke-linejoin="miter" stroke-miterlimit="2" fill="#70b3bf" stroke="#70b3bf" transform="translate(0 324.00172) translate(409.88147895000014 40.69976000000001) scale(1.67) translate(-451.91712 39.672)"></path>
        <path id="path174045" style="font-style:normal;font-weight:700;font-size:72px;line-height:1;font-family:'Comfortaa Bold Alt1';font-variant-ligatures:none;text-align:center;text-anchor:middle" d="m 527.86137,-38.664 c -1.44,-0.72 -3.45599,-1.152 -5.976,-1.152 -2.448,0 -4.68,0.504 -6.76799,1.44 -2.16001,1.008 -3.88801,2.304 -5.32801,3.96 v -1.368 c 0,-2.376 -1.22399,-3.6 -3.6,-3.6 -1.152,0 -2.08799,0.36 -2.664,0.936 -0.648,0.648 -0.93599,1.512 -0.93599,2.664 V -3.6 c 0,1.224 0.28799,2.16 0.93599,2.736 0.57601,0.576 1.512,0.864 2.664,0.864 1.152,0 2.088,-0.288 2.66401,-0.936 0.57599,-0.576 0.93599,-1.512 0.93599,-2.664 v -21.024 c 0,-2.664 1.008,-4.824 3.168,-6.408 2.08801,-1.584 4.89601,-2.376 8.35201,-2.376 1.15199,0 2.736,0.216 4.67999,0.504 0.432,0.144 0.79201,0.144 1.08001,0.144 1.43999,0 2.448,-0.72 2.88,-2.304 0,-0.144 0.072,-0.36 0.072,-0.72 0,-1.152 -0.72001,-2.088 -2.16001,-2.88 z" stroke-width="0" stroke-linejoin="miter" stroke-miterlimit="2" fill="#70b3bf" stroke="#70b3bf" transform="translate(0 324.00172) translate(494.50415315000015 40.45927999999999) scale(1.67) translate(-502.58938 39.816)"></path>
        <path id="path174047" style="font-style:normal;font-weight:700;font-size:72px;line-height:1;font-family:'Comfortaa Bold Alt1';font-variant-ligatures:none;text-align:center;text-anchor:middle" d="m 532.7045,-19.728 c 0,3.816 0.864,7.2 2.592,10.224 1.728,3.024 4.176,5.472 7.2,7.2 3.024,1.728 6.408,2.592 10.08,2.592 h 0.288 0.144 15.912 c 1.008,0 1.8,-0.288 2.448,-0.936 0.72,-0.72 1.008,-1.512 1.008,-2.448 v -15.336 -1.296 -32.832 c 0,-1.08 -0.288,-1.944 -1.008,-2.664 -0.648,-0.648 -1.512,-1.008 -2.664,-1.008 -1.008,0 -1.872,0.36 -2.592,1.008 -0.72,0.72 -1.08,1.584 -1.08,2.664 v 19.44 c -1.656,-2.016 -3.672,-3.6 -6.12,-4.824 -2.376,-1.152 -4.968,-1.728 -7.776,-1.728 -3.456,0 -6.552,0.864 -9.36,2.592 -2.808,1.8 -5.04,4.176 -6.624,7.2 -1.584,3.024 -2.448,6.48 -2.448,10.152 z m 7.056,0 c 0,-2.52 0.576,-4.824 1.728,-6.84 1.152,-2.016 2.664,-3.672 4.608,-4.824 1.944,-1.152 4.104,-1.8 6.48,-1.8 2.448,0 4.608,0.648 6.552,1.8 1.944,1.152 3.456,2.808 4.536,4.824 1.152,2.016 1.656,4.32 1.656,6.84 0,2.592 -0.504,4.896 -1.656,6.912 -1.08,2.088 -2.592,3.744 -4.536,4.896 -1.944,1.152 -4.104,1.728 -6.552,1.728 -2.376,0 -4.536,-0.576 -6.48,-1.728 -1.944,-1.152 -3.456,-2.808 -4.608,-4.896 -1.152,-2.016 -1.728,-4.32 -1.728,-6.912 z" stroke-width="0" stroke-linejoin="miter" stroke-miterlimit="2" fill="#70b3bf" stroke="#70b3bf" transform="translate(0 324.00172) translate(544.7964035500002 13.044560000000004) scale(1.67) translate(-532.7045 56.232)"></path>
        <path id="path174049" style="font-style:normal;font-weight:700;font-size:72px;line-height:1;font-family:'Comfortaa Bold Alt1';font-variant-ligatures:none;text-align:center;text-anchor:middle" d="m 587.2175,-55.152 c -0.72,0.72 -1.08,1.584 -1.08,2.664 v 48.744 c 0,1.08 0.36,1.944 1.08,2.664 0.72,0.72 1.584,1.08 2.664,1.08 1.08,0 1.944,-0.36 2.664,-1.08 0.72,-0.72 1.08,-1.584 1.08,-2.664 v -48.744 c 0,-1.08 -0.36,-1.944 -1.08,-2.664 -0.72,-0.72 -1.584,-1.08 -2.664,-1.08 -1.08,0 -1.944,0.36 -2.664,1.08 z" stroke-width="0" stroke-linejoin="miter" stroke-miterlimit="2" fill="#70b3bf" stroke="#70b3bf" transform="translate(0 324.00172) translate(634.0295135500002 13.044560000000004) scale(1.67) translate(-586.1375 56.232)"></path>
        <path id="path174051" style="font-style:normal;font-weight:700;font-size:72px;line-height:1;font-family:'Comfortaa Bold Alt1';font-variant-ligatures:none;text-align:center;text-anchor:middle" d="m 609.011,-37.944 v 6.192 17.784 c 0,2.664 0.504,5.04 1.656,7.128 1.08,2.16 2.592,3.816 4.536,5.04 1.944,1.224 4.104,1.8 6.48,1.8 h 1.296 c 1.224,0 2.232,-0.288 3.024,-1.008 0.792,-0.648 1.224,-1.512 1.224,-2.592 0,-1.008 -0.36,-1.872 -0.936,-2.592 -0.576,-0.648 -1.296,-1.008 -2.16,-1.008 h -2.448 c -1.584,0 -2.88,-0.648 -3.888,-1.944 -1.08,-1.296 -1.584,-2.88 -1.584,-4.824 v -17.784 h 6.12 c 1.008,0 1.8,-0.288 2.448,-0.864 0.576,-0.576 0.936,-1.296 0.936,-2.16 0,-0.936 -0.36,-1.728 -0.936,-2.304 -0.648,-0.576 -1.44,-0.864 -2.448,-0.864 h -6.12 v -10.368 c 0,-1.008 -0.36,-1.872 -1.008,-2.592 -0.72,-0.648 -1.584,-1.008 -2.592,-1.008 -1.08,0 -1.944,0.36 -2.592,1.008 -0.72,0.72 -1.008,1.584 -1.008,2.592 z" stroke-width="0" stroke-linejoin="miter" stroke-miterlimit="2" fill="#70b3bf" stroke="#70b3bf" transform="translate(0 324.00172) translate(672.22825855 20.258960000000002) scale(1.67) translate(-609.011 51.912)"></path>
      </g>
      <image xlink:href="" id="icon" style="display: none;" x="0" y="0"></image>
    </g>
  </g>
</svg>