<svg xmlns:dc="http://purl.org/dc/elements/1.1/" xmlns:cc="http://creativecommons.org/ns#" xmlns:rdf="http://www.w3.org/1999/02/22-rdf-syntax-ns#" xmlns:svg="http://www.w3.org/2000/svg" xmlns="http://www.w3.org/2000/svg" xmlns:xlink="http://www.w3.org/1999/xlink" id="svg334173" viewBox="0 0 1024 768" height="768px" width="1024px" version="1.1">
  <metadata id="metadata334179">
    <rdf:rdf>
      <cc:work rdf:about="">
        <dc:format>image/svg+xml</dc:format>
        <dc:type rdf:resource="http://purl.org/dc/dcmitype/StillImage"></dc:type>
      </cc:work>
    </rdf:rdf>
  </metadata>
  <defs id="defs334177"></defs>
  <linearGradient spreadMethod="pad" y2="30%" x2="-10%" y1="120%" x1="30%" id="3d_gradient2-logo-d2bb7385-91a4-4b39-b642-4200286a8aa0">
    <stop id="stop334154" stop-opacity="1" stop-color="#ffffff" offset="0%"></stop>
    <stop id="stop334156" stop-opacity="1" stop-color="#000000" offset="100%"></stop>
  </linearGradient>
  <linearGradient gradientTransform="rotate(-30)" spreadMethod="pad" y2="30%" x2="-10%" y1="120%" x1="30%" id="3d_gradient3-logo-d2bb7385-91a4-4b39-b642-4200286a8aa0">
    <stop id="stop334159" stop-opacity="1" stop-color="#ffffff" offset="0%"></stop>
    <stop id="stop334161" stop-opacity="1" stop-color="#cccccc" offset="50%"></stop>
    <stop id="stop334163" stop-opacity="1" stop-color="#000000" offset="100%"></stop>
  </linearGradient>
  <g id="logo-group">
    <image xlink:href="" id="container" x="272" y="144" width="480" height="480" style="display: none;" transform="translate(0 0)"></image>
    <g id="logo-center" transform="translate(0 0)">
      <image xlink:href="" id="icon_container" style="display: none;" x="0" y="0"></image>
      <g id="slogan" style="font-style:oblique;font-weight:normal;font-size:32px;line-height:1;font-family:Lora;font-variant-ligatures:none;text-align:center;text-anchor:middle" transform="translate(0 0)"></g>
      <g id="title" style="font-style:normal;font-weight:normal;font-size:72px;line-height:1;font-family:'Brandmark Script 2 Color Shadow';font-variant-ligatures:normal;text-align:center;text-anchor:middle" transform="translate(0 0)">
        <g id="path334182" aria-label="c" transform="translate(0 341.46891999999997) translate(323.3836678850001 26.342239999999997) scale(2.33) translate(-436.48248 30.672)"> <path class="c1" d="M110.92931,107.68532c-2.3475,4.01615-7.48926,13.45768-16.34727,13.75215 c-0.20584,0.26431-0.60695,1.57117,0.6545,2.42507s4.74903,1.37262,7.20086,0.34628 c3.71515-1.80775,8.55478-6.34667,11.58888-11.98744C114.38422,110.86194,112.27644,108.23238,110.92931,107.68532z" transform="translate(350.54907 -125.53986)" stroke-width="0" stroke-linejoin="miter" stroke-miterlimit="2" fill="#000000" stroke="#000000"></path> <path class="c1" d="M101.56798,107.2527c1.73638,0.60934,4.50614,0.0693,6.19492-2.9304 c0.92206-1.9343,0.51774-4.35988-0.14157-4.98424c-1.87692-1.77742-3.80619-0.90398-3.82064-0.44793 c0.54005,1.0739,0.51604,3.145,0.02146,4.88609C103.31513,105.56104,102.491,106.72499,101.56798,107.2527z" transform="translate(350.54907 -125.53986)" stroke-width="0" stroke-linejoin="miter" stroke-miterlimit="2" fill="#000000" stroke="#000000"></path> <path class="c2" d="M107.76952,104.30833c0.82101-1.47626,0.92717-2.65226,0.92717-3.26013 c0-4.15836-4.08336-6.18034-8.2521-6.18034c-5.22698,0-10.20484,5.45785-12.71799,11.84804 c-1.29955,3.30437-1.78021,6.14141-1.79297,8.46101c-0.03825,6.95798,4.92001,10.7261,9.84472,10.7261 c2.58579,0,4.49953-0.65446,6.64996-1.69419c-1.33913,0.49283-6.4383,0.61839-7.84628-2.77135 c-0.30486-0.77937-0.50412-1.72726-0.57675-2.68634c-0.10101-1.63898,0.12492-3.32816,0.32756-4.35297 c0.81401-4.11677,3.2354-9.37727,6.29976-12.818c1.00114-1.1241,2.0598-2.05948,3.16808-2.69002 c0.64772-0.36852,1.12952-0.4509,1.64507-0.2888C107.99603,99.40324,108.50481,102.64202,107.76952,104.30833z" transform="translate(350.54907 -125.53986)" stroke-width="0" stroke-linejoin="miter" stroke-miterlimit="2" fill="#000000" stroke="#000000"></path> <radialGradient id="50c07eaa-9a38-435f-aed7-d76bfc2ef4aa" cx="98.43066" cy="105.77669" r="13.93484" gradientUnits="userSpaceOnUse" transform="translate(350.54907 -125.53986)"> <stop offset="0.44345" style="stop-color:#000000;stop-opacity:0"></stop> <stop offset="0.79219" style="stop-color:#000000"></stop> </radialGradient> <path class="highlight" fill="url(#50c07eaa-9a38-435f-aed7-d76bfc2ef4aa)" d="M107.76292,104.32228c0.06539-0.13709,0.1352-0.3336,0.18983-0.5601 c0.0664-0.27533,0.11211-0.59679,0.12242-0.93259c0.02888-0.94125-0.20897-1.96227-0.74155-2.78017 c-0.42527-0.65311-1.0432-1.1825-1.8879-1.44808c-0.5155-0.16211-0.99731-0.07971-1.64502,0.28876 c0.54004,1.07391,0.51605,3.14502,0.02142,4.88611c-0.50702,1.78485-1.33112,2.94879-2.25415,3.4765 C103.30437,107.86201,106.07414,107.32198,107.76292,104.32228z" transform="translate(350.54907 -125.53986)" stroke-width="0" stroke-linejoin="miter" stroke-miterlimit="2" opacity="0.8"></path> <linearGradient id="775df742-166b-4a67-816e-ff527470401e" gradientUnits="userSpaceOnUse" x1="95.24824" y1="126.73592" x2="115.43226" y2="106.86242"> <stop offset="0.0932" style="stop-color:#000000"></stop> <stop offset="0.19365" style="stop-color:#000000;stop-opacity:0.68377"></stop> <stop offset="0.41085" style="stop-color:#000000;stop-opacity:0"></stop> </linearGradient> <path class="highlight" fill="url(#775df742-166b-4a67-816e-ff527470401e)" d="M110.92931,107.68532c-2.34753,4.01611-7.48926,13.45764-16.34729,13.75214 c1.40802,3.38971,6.50714,3.26416,7.84631,2.77136c-0.0072,0.00348-0.01416,0.00647-0.02136,0.00995 c0.0097-0.00403,0.02069-0.00592,0.0304-0.00995c3.71515-1.80774,8.55481-6.34668,11.58893-11.98743 C114.3842,110.86195,112.27641,108.23238,110.92931,107.68532z" transform="translate(350.54907 -125.53986)" stroke-width="0" stroke-linejoin="miter" stroke-miterlimit="2" opacity="0.8"></path> <linearGradient id="55748239-50ba-4e25-a1f3-4e04b981f374" gradientUnits="userSpaceOnUse" x1="109.42271" y1="86.96759" x2="85.85205" y2="133.57321"> <stop offset="0.1253" style="stop-color:#000000"></stop> <stop offset="0.20239" style="stop-color:#000000;stop-opacity:0.68377"></stop> <stop offset="0.36908" style="stop-color:#000000;stop-opacity:0"></stop> <stop offset="0.62467" style="stop-color:#000000;stop-opacity:0"></stop> <stop offset="0.85272" style="stop-color:#000000"></stop> </linearGradient> <path class="highlight" fill="url(#55748239-50ba-4e25-a1f3-4e04b981f374)" d="M107.76952,104.30833c0.82101-1.47626,0.92717-2.65226,0.92717-3.26013 c0-4.15836-4.08336-6.18034-8.2521-6.18034c-5.22698,0-10.20484,5.45785-12.71799,11.84804 c-1.29955,3.30437-1.78021,6.14141-1.79297,8.46101c-0.03825,6.95798,4.92001,10.7261,9.84472,10.7261 c2.58579,0,4.49953-0.65446,6.64996-1.69419c-1.33913,0.49283-6.4383,0.61839-7.84628-2.77135 c-0.30486-0.77937-0.50412-1.72726-0.57675-2.68634c-0.10101-1.63898,0.12492-3.32816,0.32756-4.35297 c0.81401-4.11677,3.2354-9.37727,6.29976-12.818c1.00114-1.1241,2.0598-2.05948,3.16808-2.69002 c0.64772-0.36852,1.12952-0.4509,1.64507-0.2888C107.99603,99.40324,108.50481,102.64202,107.76952,104.30833z" transform="translate(350.54907 -125.53986)" stroke-width="0" stroke-linejoin="miter" stroke-miterlimit="2" opacity="0.8"></path> </g>
        <g id="path334184" aria-label="a" transform="translate(0 341.46891999999997) translate(377.06062348499995 27.18103999999999) scale(2.33) translate(-459.5198 30.312)"> <path class="c1" d="M101.43471,106.12477c-0.26545,0.6845-1.91131,3.40824-4.07023,6.37474 c-2.82034,3.87535-6.35925,8.06707-9.14183,8.50835c-0.52673,0.49675-0.31703,1.79685,0.64955,2.5654 c1.38325,1.09985,3.26295,0.78853,4.72717-0.03056c1.05695-0.82713,2.33726-2.05311,3.54929-3.26682 c2.18554-2.18857,4.21218-4.47899,4.75471-5.32489C102.94053,112.83797,102.05541,106.18849,101.43471,106.12477z" transform="translate(379.244941 -125.54028)" stroke-width="0" stroke-linejoin="miter" stroke-miterlimit="2" fill="#000000" stroke="#000000"></path> <path class="c1" d="M95.49241,104.51727c0.24141,0.60683,1.08236,1.07996,2.18671,1.07996 c0.65283,0,1.37345-0.21062,1.77552-0.57344c0.3033-0.21722,0.60794-0.82744,0.82951-1.50556 c0.34241-1.04797,0.55749-2.27112,0.55338-2.50983c-0.02934-0.41365-0.15861-1.03341-0.59879-1.50267 c-1.4182-1.51188-3.35904-0.52518-3.30677-0.02764c0.63452,0.83244,0.80312,2.45782,0.50449,3.31075 C97.05903,103.7108,96.13069,104.45692,95.49241,104.51727z" transform="translate(379.244941 -125.54028)" stroke-width="0" stroke-linejoin="miter" stroke-miterlimit="2" fill="#000000" stroke="#000000"></path> <path class="c2" d="M100.3595,103.88776c0.24098,0.03685,1.02379-1.02623,1.13421-2.62733 c0.05324-0.77197,0.14558-1.40266-0.09924-2.00266c-1.22143-2.99329-3.8841-4.02949-6.75592-4.02949 c-7.89713,0-14.86555,13.85048-14.33525,22.56225c0.26532,4.35867,3.22518,7.75593,7.93336,7.75343 c2.30156-0.00123,4.08593-1.01431,5.3627-2.00127c-1.75471,0.50276-3.99268,0.50961-5.07361-1.67654 c-0.12318-0.24912-0.22521-0.52556-0.30311-0.8583c-0.62114-2.65312,0.19109-6.74797,1.52642-10.69637 c1.18584-3.50636,3.97652-9.15059,7.1829-10.8334c0.74361-0.39027,1.48718-0.45225,2.21849-0.20747 C100.36281,99.67641,101.0264,100.97479,100.3595,103.88776z" transform="translate(379.244941 -125.54028)" stroke-width="0" stroke-linejoin="miter" stroke-miterlimit="2" fill="#000000" stroke="#000000"></path> <path class="c1" d="M116.59007,107.68524c-2.16344,3.97237-8.21107,13.31823-12.60037,13.31823 c-1.42496,0.20239,0.24373,2.41632,1.95239,3.18014c1.40677,0.62885,2.84716-0.05217,4.17005-0.80607 c3.40841-2.60168,7.27779-6.79088,9.57695-11.15871C120.04558,110.76774,117.66652,108.05269,116.59007,107.68524z" transform="translate(379.244941 -125.54028)" stroke-width="0" stroke-linejoin="miter" stroke-miterlimit="2" fill="#000000" stroke="#000000"></path> <path class="c2" d="M105.95361,112.37332c1.87494-4.99705,4.15206-9.66674,4.15206-12.50077 c0-2.99171-3.09069-4.56967-6.23572-4.56967c-0.87514,0-1.66403,0.07191-1.96934,0.28568 c0.20245,0.79591,0.01205,1.95683-0.50614,3.66922c-0.56742,1.87505-1.66088,4.77912-1.94243,5.76527 c-0.2579,0.90336-0.50157,1.73497-0.7194,2.50771c-0.44279,1.57086-0.93723,3.29502-1.36816,4.96875 c-0.70042,2.72042-0.92896,5.52751-0.21582,7.77637c0.25006,0.54314,0.54231,1.06729,0.85741,1.56772 c1.40358,2.22907,3.37807,3.69914,5.97133,3.69914c2.74873,0,5.13561-1.37395,6.13474-2.1652 c-2.67733,0.98327-6.00126,0.24837-6.12244-2.37407C103.85554,118.10061,104.9665,115.00413,105.95361,112.37332z" transform="translate(379.244941 -125.54028)" stroke-width="0" stroke-linejoin="miter" stroke-miterlimit="2" fill="#000000" stroke="#000000"></path> <linearGradient id="7d331a26-8c08-4326-bf08-223f5329cdbe" gradientUnits="userSpaceOnUse" x1="104.85906" y1="124.98618" x2="120.43268" y2="107.93813"> <stop offset="0.04778" style="stop-color:#000000"></stop> <stop offset="0.16906" style="stop-color:#000000;stop-opacity:0.68377"></stop> <stop offset="0.4313" style="stop-color:#000000;stop-opacity:0"></stop> </linearGradient> <path class="highlight" fill="url(#7d331a26-8c08-4326-bf08-223f5329cdbe)" d="M116.59009,107.68526c-2.16345,3.97235-8.21112,13.31818-12.6004,13.31818 c0.12122,2.62244,3.44513,3.35736,6.12244,2.37408c3.40845-2.60168,7.27783-6.79089,9.57697-11.15869 C120.04559,110.76772,117.6665,108.05269,116.59009,107.68526z" transform="translate(379.244941 -125.54028)" stroke-width="0" stroke-linejoin="miter" stroke-miterlimit="2" opacity="0.8"></path> <radialGradient id="a49c4eaf-cc29-4006-98d2-208ad5ad6aa1" cx="96.72131" cy="104.00586" r="7.38442" gradientUnits="userSpaceOnUse" transform="translate(379.244941 -125.54028)"> <stop offset="0.29388" style="stop-color:#000000;stop-opacity:0"></stop> <stop offset="0.75717" style="stop-color:#000000"></stop> </radialGradient> <path class="highlight" fill="url(#a49c4eaf-cc29-4006-98d2-208ad5ad6aa1)" d="M99.15045,99.27058c-0.73132-0.24475-1.47485-0.1828-2.21851,0.20752 c0.63452,0.8324,0.80316,2.45776,0.50452,3.31073c-0.37744,0.92194-1.30579,1.66809-1.94403,1.72845 c0.24139,0.60681,1.08234,1.0799,2.18671,1.0799c0.65118,0,1.36926-0.20984,1.77197-0.57104 c0.00031-0.0011,0.00061-0.00201,0.00092-0.00311c0.17633-0.61749,0.68234-2.01948,1.16666-3.4173 c-0.02259-0.53936-0.1314-0.97469-0.29939-1.31934C100.06155,99.75761,99.65683,99.44008,99.15045,99.27058z" transform="translate(379.244941 -125.54028)" stroke-width="0" stroke-linejoin="miter" stroke-miterlimit="2" opacity="0.8"></path> <linearGradient id="b3da47f0-fb87-46e0-8580-6aa41c8b3c47" gradientUnits="userSpaceOnUse" x1="88.10892" y1="124.26801" x2="100.12695" y2="114.09926"> <stop offset="0.07818" style="stop-color:#000000"></stop> <stop offset="0.16985" style="stop-color:#000000;stop-opacity:0.68377"></stop> <stop offset="0.36808" style="stop-color:#000000;stop-opacity:0"></stop> <stop offset="0.54906" style="stop-color:#000000;stop-opacity:0"></stop> <stop offset="0.83779" style="stop-color:#000000"></stop> </linearGradient> <path class="highlight" fill="url(#b3da47f0-fb87-46e0-8580-6aa41c8b3c47)" d="M97.3645,112.49947c-2.82037,3.87537-6.35925,8.06708-9.14185,8.50836 c0.07788,0.33276,0.17993,0.60919,0.3031,0.85834c1.08093,2.18616,3.31891,2.17926,5.07361,1.67651 c1.05695-0.82709,2.33728-2.0531,3.54932-3.26685C96.43555,118.02699,96.66406,115.21992,97.3645,112.49947z" transform="translate(379.244941 -125.54028)" stroke-width="0" stroke-linejoin="miter" stroke-miterlimit="2" opacity="0.8"></path> <linearGradient id="4afa4a51-37de-4862-8b84-d9f5d8a97df3" gradientUnits="userSpaceOnUse" x1="112.85378" y1="88.41814" x2="99.75337" y2="128.71941"> <stop offset="0.09354" style="stop-color:#000000"></stop> <stop offset="0.18948" style="stop-color:#000000;stop-opacity:0.68377"></stop> <stop offset="0.39691" style="stop-color:#000000;stop-opacity:0"></stop> <stop offset="0.73369" style="stop-color:#000000;stop-opacity:0"></stop> <stop offset="0.97357" style="stop-color:#000000"></stop> </linearGradient> <path class="highlight" fill="url(#4afa4a51-37de-4862-8b84-d9f5d8a97df3)" d="M105.95361,112.37332c1.87494-4.99705,4.15206-9.66674,4.15206-12.50077 c0-2.99171-3.09069-4.56967-6.23572-4.56967c-0.87514,0-1.66403,0.07191-1.96934,0.28568 c0.20245,0.79591,0.01205,1.95683-0.50614,3.66922c-0.56742,1.87505-1.66088,4.77912-1.94243,5.76527 c-0.2579,0.90336-0.50157,1.73497-0.7194,2.50771c-0.44279,1.57086-0.93723,3.29502-1.36816,4.96875 c-0.70042,2.72042-0.92896,5.52751-0.21582,7.77637c0.25006,0.54314,0.54231,1.06729,0.85741,1.56772 c1.40358,2.22907,3.37807,3.69914,5.97133,3.69914c2.74873,0,5.13561-1.37395,6.13474-2.1652 c-2.67733,0.98327-6.00126,0.24837-6.12244-2.37407C103.85554,118.10061,104.9665,115.00413,105.95361,112.37332z" transform="translate(379.244941 -125.54028)" stroke-width="0" stroke-linejoin="miter" stroke-miterlimit="2" opacity="0.8"></path> <linearGradient id="f42151f5-3cf2-4411-903d-37e363a9d0f2" gradientUnits="userSpaceOnUse" x1="104.1753" y1="72.42992" x2="77.65019" y2="142.75229"> <stop offset="0.27883" style="stop-color:#000000"></stop> <stop offset="0.33459" style="stop-color:#000000;stop-opacity:0.68377"></stop> <stop offset="0.45514" style="stop-color:#000000;stop-opacity:0"></stop> <stop offset="0.63842" style="stop-color:#000000;stop-opacity:0"></stop> <stop offset="0.77772" style="stop-color:#000000"></stop> </linearGradient> <path class="highlight" fill="url(#f42151f5-3cf2-4411-903d-37e363a9d0f2)" d="M96.93195,99.4781c0.74365-0.39032,1.48718-0.45227,2.21851-0.20752 c0.67312,0.22533,1.07319,0.69241,1.28288,1.2893c0.1149,0.32706,0.17088,0.69804,0.18534,1.04587 c0.28949-0.83527,0.56351-1.64645,0.77579-2.34798c-1.22144-2.99329-3.88409-4.02948-6.75592-4.02948 c-7.89716,0-14.86554,13.85046-14.33527,22.56226c0.26532,4.35864,3.22522,7.75592,7.93335,7.75342 c2.30157-0.00122,4.08594-1.01434,5.36273-2.00128c-1.7547,0.50275-3.99268,0.50964-5.07361-1.67651 c-0.12317-0.24915-0.22522-0.52557-0.3031-0.85834c-0.62115-2.65308,0.1911-6.74792,1.52643-10.69635 C90.93488,106.80513,93.72559,101.1609,96.93195,99.4781z" transform="translate(379.244941 -125.54028)" stroke-width="0" stroke-linejoin="miter" stroke-miterlimit="2" opacity="0.8"></path> </g>
        <g id="path334186" aria-label="r" transform="translate(0 341.46891999999997) translate(461.203587285 -2.176960000000001) scale(2.33) translate(-495.63266 42.912)"> <path class="c1" d="M112.52395,107.68502c-2.74715,5.03338-8.41092,13.1659-13.10848,13.32166 c-1.42525,0.20244,0.00279,2.41245,1.71181,3.17642c1.40706,0.62899,2.87473,0.16917,4.19789-0.58488 c2.2062-1.20245,8.09502-7.10834,10.22185-11.37037C115.8733,110.78307,113.73178,108.18836,112.52395,107.68502z" transform="translate(411.213106 -125.53874)" stroke-width="0" stroke-linejoin="miter" stroke-miterlimit="2" fill="#000000" stroke="#000000"></path> <path class="c1" d="M93.80766,86.80521c0.15543,0.48647,0.20937,1.17325,0.00605,2.08311 c-0.16148,0.72263-0.53386,1.77637-1.01329,2.6604c-0.71884,1.89439-1.56725,3.7738-1.8838,4.45045 c-2.25835,4.82756-5.19025,10.09973-6.47471,12.26202c-0.29238,1.74551,2.36543,4.34707,3.16797,4.32031 c1.27505-2.17106,4.89861-7.97081,7.62745-13.68023c0.76345-1.59733,1.47223-3.17301,2.0265-4.6808 c0.45309-1.23256,0.79698-2.42992,1.03258-3.47198c0.39744-2.50739-0.4376-4.43645-1.70467-4.81425 C95.37539,85.57158,94.20809,86.15982,93.80766,86.80521z" transform="translate(411.213106 -125.53874)" stroke-width="0" stroke-linejoin="miter" stroke-miterlimit="2" fill="#000000" stroke="#000000"></path> <path class="c2" d="M99.39736,120.17397c-0.03151-4.34954,2.90304-9.81717,4.92663-13.90649 c1.44762-2.92537,2.59061-5.38638,2.3717-6.74014c-0.26443-1.63527-2.13164-3.18066-6.44366-4.36041 c-0.93549-0.25594-1.97758-0.58068-2.98819-0.94645c-1.853-0.67066-3.59571-1.5299-4.46341-2.67175 c-0.34315-0.49655-0.57761-1.10009-0.57326-1.67941c0.00239-0.31847,0.06429-0.79325,0.20026-1.24792 c0.25947-0.86759,0.75485-1.49182,1.38023-1.81618c0.71595-0.37135,1.54814-0.4051,2.3767-0.2466 c1.42556,0.27269,2.30864,1.49992,2.11205,4.18989c0.23371-0.93047,0.42799-2.5561,0.17338-3.79113 c-0.51282-2.38966-2.87724-4.33064-6.13564-4.33064c-2.83878,0-5.2773,2.73307-5.66068,5.51096 c-0.27003,1.95667-0.00943,3.59178,0.5845,4.83273c0.7067,1.47659,1.83679,2.52512,3.44343,3.48518 c1.69063,1.01023,3.30247,1.8376,4.53594,2.44569c0.86258,0.42525,1.45202,0.88733,1.65839,1.36314 c0.9007,2.07662-5.36835,11.78783-5.39609,17.75192c-0.01852,3.98206,3.09274,7.52476,7.77001,7.52476 c2.50829,0,4.92204-1.1186,6.05552-1.94288c-2.8108,1.03229-5.47373-0.17448-5.90971-2.59154 C99.4063,120.86178,99.39901,120.4016,99.39736,120.17397z" transform="translate(411.213106 -125.53874)" stroke-width="0" stroke-linejoin="miter" stroke-miterlimit="2" fill="#000000" stroke="#000000"></path> <linearGradient id="6a033b45-6d3f-4ddf-ae02-e4a1ee26484c" gradientUnits="userSpaceOnUse" x1="93.96214" y1="93.74287" x2="97.45193" y2="86.5796"> <stop offset="0.06917" style="stop-color:#000000"></stop> <stop offset="0.18797" style="stop-color:#000000;stop-opacity:0.68377"></stop> <stop offset="0.44485" style="stop-color:#000000;stop-opacity:0"></stop> <stop offset="0.61676" style="stop-color:#000000;stop-opacity:0"></stop> <stop offset="0.96326" style="stop-color:#000000"></stop> </linearGradient> <path class="highlight" fill="url(#6a033b45-6d3f-4ddf-ae02-e4a1ee26484c)" d="M97.26383,94.22047c0.45306-1.23254,0.797-2.42993,1.03259-3.47198 c0.19659-2.68994-0.68652-3.91718-2.11206-4.18988c-0.82855-0.15851-1.66077-0.12476-2.37671,0.24658 c0.15546,0.48645,0.20935,1.17328,0.00604,2.08313c-0.16144,0.7226-0.53387,1.77637-1.01331,2.6604 C93.66813,92.69057,95.4108,93.54982,97.26383,94.22047z" transform="translate(411.213106 -125.53874)" stroke-width="0" stroke-linejoin="miter" stroke-miterlimit="2" opacity="0.8"></path> <linearGradient id="da81ba4b-5e5a-4cac-96e1-2c964cfb80d6" gradientUnits="userSpaceOnUse" x1="99.7818" y1="126.47613" x2="116.74059" y2="105.58786"> <stop offset="0.03788" style="stop-color:#000000"></stop> <stop offset="0.22585" style="stop-color:#000000;stop-opacity:0.68377"></stop> <stop offset="0.6323" style="stop-color:#000000;stop-opacity:0"></stop> </linearGradient> <path class="highlight" fill="url(#da81ba4b-5e5a-4cac-96e1-2c964cfb80d6)" d="M112.52396,107.68501c-2.74719,5.03339-8.41095,13.16589-13.10852,13.32166 c0.43597,2.41705,3.09894,3.62384,5.90973,2.59155c2.20618-1.20245,8.09503-7.10834,10.22186-11.37036 C115.87327,110.78304,113.73179,108.18837,112.52396,107.68501z" transform="translate(411.213106 -125.53874)" stroke-width="0" stroke-linejoin="miter" stroke-miterlimit="2" opacity="0.8"></path> <linearGradient id="04d7c6d2-e159-40d8-a3dd-6f375ca1ee54" gradientUnits="userSpaceOnUse" x1="83.66734" y1="113.74444" x2="95.14693" y2="94.45872"> <stop offset="0.40116" style="stop-color:#000000;stop-opacity:0"></stop> <stop offset="0.86632" style="stop-color:#000000"></stop> </linearGradient> <path class="highlight" fill="url(#04d7c6d2-e159-40d8-a3dd-6f375ca1ee54)" d="M90.70139,96.45558c-0.00024-0.00018-0.00049-0.00031-0.00073-0.00049 c-2.22632,4.69989-5.01453,9.71155-6.25873,11.80609c-0.29242,1.74548,2.36542,4.34705,3.16797,4.32031 c1.27502-2.17108,4.89856-7.97083,7.62744-13.68024C94.00388,98.29317,92.39201,97.46584,90.70139,96.45558z" transform="translate(411.213106 -125.53874)" stroke-width="0" stroke-linejoin="miter" stroke-miterlimit="2" opacity="0.8"></path> <linearGradient id="c38bb574-cf29-433d-abf1-bbb6d80e2c1c" gradientUnits="userSpaceOnUse" x1="89.05183" y1="138.48996" x2="103.00179" y2="72.91328"> <stop offset="0.15901" style="stop-color:#000000"></stop> <stop offset="0.24176" style="stop-color:#000000;stop-opacity:0.68377"></stop> <stop offset="0.42069" style="stop-color:#000000;stop-opacity:0"></stop> </linearGradient> <path class="highlight" fill="url(#c38bb574-cf29-433d-abf1-bbb6d80e2c1c)" d="M99.39736,120.17397c-0.03151-4.34954,2.90304-9.81717,4.92663-13.90649 c1.44762-2.92537,2.59061-5.38638,2.3717-6.74014c-0.26443-1.63527-2.13164-3.18066-6.44366-4.36041 c-0.93549-0.25594-1.97758-0.58068-2.98819-0.94645c-1.853-0.67066-3.59571-1.5299-4.46341-2.67175 c-0.34315-0.49655-0.57761-1.10009-0.57326-1.67941c0.00239-0.31847,0.06429-0.79325,0.20026-1.24792 c0.25947-0.86759,0.75485-1.49182,1.38023-1.81618c0.71595-0.37135,1.54814-0.4051,2.3767-0.2466 c1.42556,0.27269,2.30864,1.49992,2.11205,4.18989c0.23371-0.93047,0.42799-2.5561,0.17338-3.79113 c-0.51282-2.38966-2.87724-4.33064-6.13564-4.33064c-2.83878,0-5.2773,2.73307-5.66068,5.51096 c-0.27003,1.95667-0.00943,3.59178,0.5845,4.83273c0.7067,1.47659,1.83679,2.52512,3.44343,3.48518 c1.69063,1.01023,3.30247,1.8376,4.53594,2.44569c0.86258,0.42525,1.45202,0.88733,1.65839,1.36314 c0.9007,2.07662-5.36835,11.78783-5.39609,17.75192c-0.01852,3.98206,3.09274,7.52476,7.77001,7.52476 c2.50829,0,4.92204-1.1186,6.05552-1.94288c-2.8108,1.03229-5.47373-0.17448-5.90971-2.59154 C99.4063,120.86178,99.39901,120.4016,99.39736,120.17397z" transform="translate(411.213106 -125.53874)" stroke-width="0" stroke-linejoin="miter" stroke-miterlimit="2" opacity="0.8"></path> <radialGradient id="7be17981-298b-4c40-ae8e-efc02d3f8472" cx="102.2095" cy="115.01871" r="46.12037" gradientUnits="userSpaceOnUse" transform="translate(411.213106 -125.53874)"> <stop offset="0.54004" style="stop-color:#000000;stop-opacity:0"></stop> <stop offset="0.81129" style="stop-color:#000000"></stop> </radialGradient> <path class="highlight" fill="url(#7be17981-298b-4c40-ae8e-efc02d3f8472)" d="M99.39736,120.17397c-0.03151-4.34954,2.90304-9.81717,4.92663-13.90649 c1.44762-2.92537,2.59061-5.38638,2.3717-6.74014c-0.26443-1.63527-2.13164-3.18066-6.44366-4.36041 c-0.93549-0.25594-1.97758-0.58068-2.98819-0.94645c-1.853-0.67066-3.59571-1.5299-4.46341-2.67175 c-0.34315-0.49655-0.57761-1.10009-0.57326-1.67941c0.00239-0.31847,0.06429-0.79325,0.20026-1.24792 c0.25947-0.86759,0.75485-1.49182,1.38023-1.81618c0.71595-0.37135,1.54814-0.4051,2.3767-0.2466 c1.42556,0.27269,2.30864,1.49992,2.11205,4.18989c0.23371-0.93047,0.42799-2.5561,0.17338-3.79113 c-0.51282-2.38966-2.87724-4.33064-6.13564-4.33064c-2.83878,0-5.2773,2.73307-5.66068,5.51096 c-0.27003,1.95667-0.00943,3.59178,0.5845,4.83273c0.7067,1.47659,1.83679,2.52512,3.44343,3.48518 c1.69063,1.01023,3.30247,1.8376,4.53594,2.44569c0.86258,0.42525,1.45202,0.88733,1.65839,1.36314 c0.9007,2.07662-5.36835,11.78783-5.39609,17.75192c-0.01852,3.98206,3.09274,7.52476,7.77001,7.52476 c2.50829,0,4.92204-1.1186,6.05552-1.94288c-2.8108,1.03229-5.47373-0.17448-5.90971-2.59154 C99.4063,120.86178,99.39901,120.4016,99.39736,120.17397z" transform="translate(411.213106 -125.53874)" stroke-width="0" stroke-linejoin="miter" stroke-miterlimit="2" opacity="0.8"></path> </g>
        <g id="path334188" aria-label="d" transform="translate(0 341.46891999999997) translate(522.2123305850001 -13.58464) scale(2.33) translate(-521.81667 47.808)"> <path class="c1" d="M101.04987,106.15002c-0.24249,0.62531-1.5326,3.0478-3.32285,5.70106 c-1.78934,2.65192-6.47605,9.16746-9.68444,9.16746c-1.04248,0.75739-0.66928,1.97449,0.29604,2.74203 c1.38145,1.09842,3.68852,0.56665,5.15083-0.25137c1.24759-0.87244,2.58512-2.15823,3.80593-3.44913 c2.00965-2.12504,3.69854-4.2783,4.22253-5.09529C102.55373,112.8545,101.66976,106.21365,101.04987,106.15002z" transform="translate(441.396835 -125.53633)" stroke-width="0" stroke-linejoin="miter" stroke-miterlimit="2" fill="#000000" stroke="#000000"></path> <path class="c1" d="M95.63913,104.50732c0.24919,0.60863,1.08594,1.07988,2.18906,1.07988 c0.69958,0,1.31563-0.13281,1.7709-0.50468c0.43549-0.44357,1.15201-1.66906,1.32668-3.50264c0,0,0.3284-1.27295-0.57249-2.03562 c-1.60032-1.35479-3.06627-0.51971-3.20273-0.06667c0.74551,1.11203,0.77798,2.4344,0.36736,3.44241 C97.1044,103.9351,96.26413,104.44189,95.63913,104.50732z" transform="translate(441.396835 -125.53633)" stroke-width="0" stroke-linejoin="miter" stroke-miterlimit="2" fill="#000000" stroke="#000000"></path> <path class="c2" d="M100.46019,103.90465c0.24067,0.0368,0.9866-1.10783,1.19614-2.73575 c0.09726-0.75565,0.12296-1.33106-0.1129-1.91841c-1.23768-3.08209-4.09897-4.0222-6.79488-4.0222 c-7.88686,0-14.83676,13.83694-14.29949,22.53693c0.27297,4.42026,3.6101,7.77325,7.4025,7.77325 c2.25654,0,4.10445-0.93243,5.63789-2.02927c-1.75242,0.50211-3.72867,0.56063-4.8082-1.62268 c-1.15227-2.33043-0.3029-7.17498,1.18229-11.56649c1.1951-3.53374,4.2246-9.53427,7.51952-10.9497 c0.56233-0.24156,1.23875-0.288,1.86966-0.07683C100.46349,99.69877,101.12621,100.99545,100.46019,103.90465z" transform="translate(441.396835 -125.53633)" stroke-width="0" stroke-linejoin="miter" stroke-miterlimit="2" fill="#000000" stroke="#000000"></path> <path class="c1" d="M116.52097,107.67529c-2.24498,4.04446-8.12272,13.0002-12.59982,13.04015 c-1.4231,0.20213,0.2282,2.70712,1.93465,3.46995c1.40494,0.62804,2.85406-0.11531,4.17525-0.86823 c2.29781-1.84489,7.03729-6.16837,9.50759-11.0792C119.91903,110.77138,117.58904,108.02599,116.52097,107.67529z" transform="translate(441.396835 -125.53633)" stroke-width="0" stroke-linejoin="miter" stroke-miterlimit="2" fill="#000000" stroke="#000000"></path> <path class="c2" d="M108.08611,104.94345c2.66893-6.36803,8.00316-18.27216,8.00316-21.61467 c0-3.255-2.83622-5.60045-6.24728-5.60045c-0.87401,0-1.58292,0.0755-1.88783,0.289 c0.36761,1.39341-3.5633,12.71096-6.41074,21.23315c-0.74776,2.23798-1.44871,4.19309-1.94434,5.83203 c-0.37861,1.25198-0.83254,2.57974-1.52684,5.32641c-0.11085,0.43851-0.22105,0.92664-0.34523,1.44215 c-0.70764,2.93751-1.14923,5.78514-0.43164,8.20898c0.98128,3.31449,3.72011,5.48268,6.94281,5.48268 c2.19048,0,4.66003-1.3959,5.79285-2.22559c-2.79334,1.02587-5.64375,0.2331-6.10989-2.60172 c-0.10012-0.49465-0.15144-1.02985-0.13985-1.61959C103.86688,114.74146,106.43972,108.87171,108.08611,104.94345z" transform="translate(441.396835 -125.53633)" stroke-width="0" stroke-linejoin="miter" stroke-miterlimit="2" fill="#000000" stroke="#000000"></path> <linearGradient id="3ea39199-f7be-4cd2-b745-db52c4ddb8d4" gradientUnits="userSpaceOnUse" x1="103.4886" y1="127.11862" x2="120.2987" y2="106.29278"> <stop offset="0.1374" style="stop-color:#000000"></stop> <stop offset="0.2704" style="stop-color:#000000;stop-opacity:0.68377"></stop> <stop offset="0.55796" style="stop-color:#000000;stop-opacity:0"></stop> </linearGradient> <path class="highlight" fill="url(#3ea39199-f7be-4cd2-b745-db52c4ddb8d4)" d="M116.52099,107.67525c-2.245,4.04449-8.12274,13.00024-12.59985,13.04016 c0.46619,2.83484,3.31659,3.62762,6.10992,2.60175c2.29779-1.84491,7.03729-6.1684,9.50757-11.07922 C119.91906,110.77138,117.58904,108.02596,116.52099,107.67525z" transform="translate(441.396835 -125.53633)" stroke-width="0" stroke-linejoin="miter" stroke-miterlimit="2" opacity="0.8"></path> <linearGradient id="479216dd-048b-4324-b6af-89880a41eb5d" gradientUnits="userSpaceOnUse" x1="88.50767" y1="123.79522" x2="100.95628" y2="113.15366"> <stop offset="0.05056" style="stop-color:#000000"></stop> <stop offset="0.14411" style="stop-color:#000000;stop-opacity:0.68377"></stop> <stop offset="0.34637" style="stop-color:#000000;stop-opacity:0"></stop> <stop offset="0.56204" style="stop-color:#000000;stop-opacity:0"></stop> <stop offset="0.82861" style="stop-color:#000000"></stop> </linearGradient> <path class="highlight" fill="url(#479216dd-048b-4324-b6af-89880a41eb5d)" d="M88.36367,120.99776c0.08179,0.33142,0.1846,0.61974,0.3176,0.88873 c1.07953,2.18329,3.05579,2.12482,4.80817,1.62268c1.24762-0.87244,2.58514-2.1582,3.80597-3.44916 c-0.71759-2.42383-0.276-5.27142,0.43164-8.20898c-1.35078,2.0019-4.35597,6.20715-7.12531,8.14746 C89.8214,120.54522,89.06552,120.91024,88.36367,120.99776z" transform="translate(441.396835 -125.53633)" stroke-width="0" stroke-linejoin="miter" stroke-miterlimit="2" opacity="0.8"></path> <radialGradient id="9b3ee649-d3ad-4e2b-b13e-ba8820bdca5f" cx="88.13482" cy="105.64346" r="16.03708" gradientUnits="userSpaceOnUse" transform="translate(441.396835 -125.53633)"> <stop offset="0.61201" style="stop-color:#000000;stop-opacity:0"></stop> <stop offset="0.84114" style="stop-color:#000000"></stop> </radialGradient> <path class="highlight" fill="url(#9b3ee649-d3ad-4e2b-b13e-ba8820bdca5f)" d="M99.25274,99.29347c-0.63092-0.21118-1.30737-0.16473-1.86969,0.07684 c-0.07599,0.03265-0.15681,0.06985-0.2325,0.10727c0.36863,0.55357,0.57442,1.15546,0.62209,1.82526 c0.04141,0.58179-0.05563,1.12833-0.25471,1.61716c-0.41351,1.01508-1.25378,1.52185-1.87878,1.58728 c0.24915,0.60864,1.08594,1.0799,2.18903,1.0799c0.69958,0,1.31561-0.13281,1.77094-0.5047 c0.30408-1.00543,0.69976-2.17194,1.12188-3.40808C100.68584,100.57995,100.29929,99.64378,99.25274,99.29347z" transform="translate(441.396835 -125.53633)" stroke-width="0" stroke-linejoin="miter" stroke-miterlimit="2" opacity="0.8"></path> <linearGradient id="7436f96f-d5c9-4cb8-a5d5-c00a7b576fa7" gradientUnits="userSpaceOnUse" x1="120.16608" y1="67.45112" x2="97.90374" y2="133.63177"> <stop offset="0.01234" style="stop-color:#000000"></stop> <stop offset="0.1282" style="stop-color:#000000;stop-opacity:0.68377"></stop> <stop offset="0.37872" style="stop-color:#000000;stop-opacity:0"></stop> <stop offset="0.75017" style="stop-color:#000000;stop-opacity:0"></stop> <stop offset="0.90984" style="stop-color:#000000"></stop> </linearGradient> <path class="highlight" fill="url(#7436f96f-d5c9-4cb8-a5d5-c00a7b576fa7)" d="M108.08611,104.94345c2.66893-6.36803,8.00316-18.27216,8.00316-21.61467 c0-3.255-2.83622-5.60045-6.24728-5.60045c-0.87401,0-1.58292,0.0755-1.88783,0.289 c0.36761,1.39341-3.5633,12.71096-6.41074,21.23315c-0.74776,2.23798-1.44871,4.19309-1.94434,5.83203 c-0.37861,1.25198-0.83254,2.57974-1.52684,5.32641c-0.11085,0.43851-0.22105,0.92664-0.34523,1.44215 c-0.70764,2.93751-1.14923,5.78514-0.43164,8.20898c0.98128,3.31449,3.72011,5.48268,6.94281,5.48268 c2.19048,0,4.66003-1.3959,5.79285-2.22559c-2.79334,1.02587-5.64375,0.2331-6.10989-2.60172 c-0.10012-0.49465-0.15144-1.02985-0.13985-1.61959C103.86688,114.74146,106.43972,108.87171,108.08611,104.94345z" transform="translate(441.396835 -125.53633)" stroke-width="0" stroke-linejoin="miter" stroke-miterlimit="2" opacity="0.8"></path> <linearGradient id="34256346-a061-4ab3-a5e5-40525629a3f0" gradientUnits="userSpaceOnUse" x1="78.64412" y1="137.99641" x2="103.95594" y2="76.69434"> <stop offset="0.16679" style="stop-color:#000000"></stop> <stop offset="0.22641" style="stop-color:#000000;stop-opacity:0.68377"></stop> <stop offset="0.35531" style="stop-color:#000000;stop-opacity:0"></stop> <stop offset="0.55588" style="stop-color:#000000;stop-opacity:0"></stop> <stop offset="0.75359" style="stop-color:#000000"></stop> </linearGradient> <path class="highlight" fill="url(#34256346-a061-4ab3-a5e5-40525629a3f0)" d="M97.38305,99.37032c0.56232-0.24158,1.23877-0.28802,1.86969-0.07684 c0.72131,0.24146,1.15705,0.77293,1.34647,1.50082c0.06669,0.25628,0.11121,0.54924,0.1218,0.88007 c0.04577-0.13406,0.08015-0.23391,0.1266-0.36992c0.22395-0.65576,0.45577-1.33562,0.69584-2.054 c-1.23767-3.08209-4.099-4.02216-6.79492-4.02216c-7.88684,0-14.83673,13.83691-14.29944,22.53693 c0.27295,4.42023,3.61005,7.77325,7.40247,7.77325c2.25653,0,4.10443-0.93243,5.63788-2.0293 c-1.75238,0.50214-3.72864,0.56061-4.80817-1.62268c-1.15228-2.33044-0.30292-7.17499,1.18225-11.56647 C91.05865,106.78627,94.08813,100.78572,97.38305,99.37032z" transform="translate(441.396835 -125.53633)" stroke-width="0" stroke-linejoin="miter" stroke-miterlimit="2" opacity="0.8"></path> </g>
        <g id="path334190" aria-label="i" transform="translate(0 341.46891999999997) translate(601.7616294850001 -2.680240000000005) scale(2.33) translate(-555.958 43.128)"> <path class="c1" d="M108.52492,107.69497c-2.1976,3.97845-8.32465,13.32818-12.60987,13.32818 c-1.42373,0.20222,0.22934,2.40821,1.93652,3.17136c1.40555,0.62831,2.57644-0.03923,3.89819-0.79248 c2.43789-1.8149,7.30521-6.21435,9.80113-11.17444C111.96619,110.82724,109.73093,108.15446,108.52492,107.69497z" transform="translate(467.559627 -125.538882)" stroke-width="0" stroke-linejoin="miter" stroke-miterlimit="2" fill="#000000" stroke="#000000"></path> <path class="c2" d="M95.7899,120.37534c-0.04615-0.6415,0.00083-1.3997,0.19801-2.31079 c0.39246-1.81338,1.25253-3.91719,1.87255-5.6018c1.85161-5.03082,4.11061-9.71986,4.11061-12.55145 c0-2.98911-3.37082-4.61637-6.51312-4.61637c-0.87439,0-1.60217,0.0805-1.90722,0.29409 c0.35519,2.132-1.62508,6.30962-3.21578,11.95281c-1.1915,4.22694-2.80432,9.5183-1.37614,13.19938 c1.16936,3.01398,4.20689,4.80121,7.09525,4.80121c2.50558,0,4.53245-1.36727,5.6957-2.1404 c-2.67966,0.98412-5.32114,0.21197-5.83472-2.37888C95.87971,120.84492,95.80389,120.5699,95.7899,120.37534z" transform="translate(467.559627 -125.538882)" stroke-width="0" stroke-linejoin="miter" stroke-miterlimit="2" fill="#000000" stroke="#000000"></path> <path class="c2" d="M103.77286,84.84531c-0.78549-1.59464-3.1255-2.43059-5.19401-2.43441 c-0.76328-0.00141-1.44218,0.08125-1.71267,0.21556c0.28181,1.41307-0.71973,3.09876-0.71973,5.1123 c0,2.59908,2.61093,3.96094,5.32814,3.96094c0.76331,0,1.37341,0.01659,1.65623-0.21582 c-0.08263-0.41048-0.07523-0.89369-0.00101-1.35534C103.39728,88.46516,104.43178,86.18299,103.77286,84.84531z" transform="translate(467.559627 -125.538882)" stroke-width="0" stroke-linejoin="miter" stroke-miterlimit="2" fill="#000000" stroke="#000000"></path> <linearGradient id="e2008026-67da-49dc-8354-b169f0e844a7" gradientUnits="userSpaceOnUse" x1="96.50286" y1="126.27817" x2="110.23282" y2="108.62537"> <stop offset="0.04384" style="stop-color:#000000"></stop> <stop offset="0.22121" style="stop-color:#000000;stop-opacity:0.68377"></stop> <stop offset="0.60474" style="stop-color:#000000;stop-opacity:0"></stop> </linearGradient> <path class="highlight" fill="url(#e2008026-67da-49dc-8354-b169f0e844a7)" d="M108.52493,107.69496c-2.19763,3.97845-8.32465,13.32819-12.60986,13.32819 c0.51355,2.59082,3.15503,3.36298,5.83472,2.37885c2.43787-1.81488,7.30518-6.21436,9.80109-11.17444 C111.96622,110.82722,109.73093,108.15443,108.52493,107.69496z" transform="translate(467.559627 -125.538882)" stroke-width="0" stroke-linejoin="miter" stroke-miterlimit="2" opacity="0.8"></path> <linearGradient id="4a50d5d5-e8c8-4c48-97d9-3ac873258e32" gradientUnits="userSpaceOnUse" x1="99.31789" y1="75.04972" x2="92.88701" y2="143.17978"> <stop offset="0.20476" style="stop-color:#000000"></stop> <stop offset="0.27299" style="stop-color:#000000;stop-opacity:0.68377"></stop> <stop offset="0.42054" style="stop-color:#000000;stop-opacity:0"></stop> <stop offset="0.61239" style="stop-color:#000000;stop-opacity:0"></stop> <stop offset="0.78042" style="stop-color:#000000"></stop> </linearGradient> <path class="highlight" fill="url(#4a50d5d5-e8c8-4c48-97d9-3ac873258e32)" d="M95.7899,120.37534c-0.04615-0.6415,0.00083-1.3997,0.19801-2.31079 c0.39246-1.81338,1.25253-3.91719,1.87255-5.6018c1.85161-5.03082,4.11061-9.71986,4.11061-12.55145 c0-2.98911-3.37082-4.61637-6.51312-4.61637c-0.87439,0-1.60217,0.0805-1.90722,0.29409 c0.35519,2.132-1.62508,6.30962-3.21578,11.95281c-1.1915,4.22694-2.80432,9.5183-1.37614,13.19938 c1.16936,3.01398,4.20689,4.80121,7.09525,4.80121c2.50558,0,4.53245-1.36727,5.6957-2.1404 c-2.67966,0.98412-5.32114,0.21197-5.83472-2.37888C95.87971,120.84492,95.80389,120.5699,95.7899,120.37534z" transform="translate(467.559627 -125.538882)" stroke-width="0" stroke-linejoin="miter" stroke-miterlimit="2" opacity="0.8"></path> <linearGradient id="d89587f3-1c97-4ea5-80cc-9ce373840699" gradientUnits="userSpaceOnUse" x1="103.87296" y1="69.26792" x2="97.72168" y2="97.50787"> <stop offset="0.35998" style="stop-color:#000000"></stop> <stop offset="0.42223" style="stop-color:#000000;stop-opacity:0.68377"></stop> <stop offset="0.55686" style="stop-color:#000000;stop-opacity:0"></stop> <stop offset="0.6992" style="stop-color:#000000;stop-opacity:0"></stop> <stop offset="0.85909" style="stop-color:#000000"></stop> </linearGradient> <path class="highlight" fill="url(#d89587f3-1c97-4ea5-80cc-9ce373840699)" d="M103.77286,84.84531c-0.78549-1.59464-3.1255-2.43059-5.19401-2.43441 c-0.76328-0.00141-1.44218,0.08125-1.71267,0.21556c0.28181,1.41307-0.71973,3.09876-0.71973,5.1123 c0,2.59908,2.61093,3.96094,5.32814,3.96094c0.76331,0,1.37341,0.01659,1.65623-0.21582 c-0.08263-0.41048-0.07523-0.89369-0.00101-1.35534C103.39728,88.46516,104.43178,86.18299,103.77286,84.84531z" transform="translate(467.559627 -125.538882)" stroke-width="0" stroke-linejoin="miter" stroke-miterlimit="2" opacity="0.8"></path> </g>
        <g id="path334192" aria-label="t" transform="translate(0 341.46891999999997) translate(639.841401985 -2.680240000000005) scale(2.33) translate(-572.30125 43.128)"> <path class="c1" d="M109.98194,107.68502c-2.33382,4.1745-8.58367,13.32292-13.70311,13.32292 c-1.42373,0.20222,0.26099,2.41346,1.96818,3.17661c1.40555,0.62831,3.04335,0.11594,4.3651-0.63731 c2.89948-1.72538,9.02633-8.52956,10.39101-11.32404C113.37306,110.77544,111.08339,108.13692,109.98194,107.68502z" transform="translate(485.344383 -125.53478)" stroke-width="0" stroke-linejoin="miter" stroke-miterlimit="2" fill="#000000" stroke="#000000"></path> <path class="c2" d="M96.61856,117.36465c0.78029-3.34461,2.67632-8.36959,5.37777-16.03944 c0.6274-1.78127,1.27008-3.68611,1.8706-5.37897c0.71168-2.00625,1.3783-3.81953,1.86697-5.32665 c0.5465-1.68549,0.87443-2.98147,0.87443-3.60326c0-2.98911-3.36087-4.60955-6.50317-4.60955 c-0.87439,0-1.6185,0.07843-1.92354,0.29202c0.36259,1.51212-3.26337,12.09015-5.69545,19.44102 c-1.84597,5.57941-3.36899,10.37553-3.61875,14.14398c-0.113,1.705,0.05736,3.23476,0.53665,4.47013 c1.19967,3.0921,3.52924,4.78851,7.14259,4.78851c2.27103,0,4.95436-1.14711,6.06547-1.9952 c-2.78474,1.02271-5.90822-0.13825-6.31521-2.53934C96.27831,120.58461,96.29739,118.74129,96.61856,117.36465z" transform="translate(485.344383 -125.53478)" stroke-width="0" stroke-linejoin="miter" stroke-miterlimit="2" fill="#000000" stroke="#000000"></path> <path class="c1" d="M104.86964,97.89205c0.93133,0.63296,2.06902,0.90919,3.10213,0.75743 c1.09117-0.16029,2.06538-0.78819,2.54507-1.5962c0.20621-0.68831,0.19763-1.27029-0.77122-1.7931 c-0.96886-0.5228-2.25065-0.39181-2.57883-0.13892c-0.02349,0.323-0.09763,0.62475-0.20808,0.90146 C106.52989,97.09699,105.55384,97.79388,104.86964,97.89205z" transform="translate(485.344383 -125.53478)" stroke-width="0" stroke-linejoin="miter" stroke-miterlimit="2" fill="#000000" stroke="#000000"></path> <path class="c2" d="M87.44386,91.05123c-1.22734,2.64297,0.00314,5.64429,2.15141,6.19102 c2.80768,0.71455,4.15054-0.33784,9.10157-0.89822c1.40704-0.15925,3.29633-0.38611,5.1701-0.39778 c1.0647-0.00663,2.10066,0.01508,3.09177,0.07648c2.01699,0.0415,3.55284,0.17184,3.55813,1.03056 c1.19579-1.85248,0.759-5.01789-2.09127-5.98789c-0.6973-0.2373-1.6142-0.37943-2.69167-0.4458 c-1.92586-0.11864-4.31632,0.00845-6.53855,0.2929C93.17024,91.68373,88.67371,91.80714,87.44386,91.05123z" transform="translate(485.344383 -125.53478)" stroke-width="0" stroke-linejoin="miter" stroke-miterlimit="2" fill="#000000" stroke="#000000"></path> <linearGradient id="09d575a4-0e70-4c5a-9db8-8bc6d29b095b" gradientUnits="userSpaceOnUse" x1="97.12556" y1="125.09133" x2="116.06313" y2="105.36936"> <stop offset="0.0143" style="stop-color:#000000"></stop> <stop offset="0.1955" style="stop-color:#000000;stop-opacity:0.68377"></stop> <stop offset="0.58731" style="stop-color:#000000;stop-opacity:0"></stop> </linearGradient> <path class="highlight" fill="url(#09d575a4-0e70-4c5a-9db8-8bc6d29b095b)" d="M109.98196,107.68501c-2.33118,4.16968-8.56891,13.29974-13.68512,13.32098 c0,0.00043,0.00006,0.00146,0.00006,0.00189c0.40698,2.40106,3.53046,3.56207,6.31519,2.53937 c2.89954-1.7254,9.02637-8.5296,10.39105-11.32404C113.37307,110.77541,111.0834,108.13692,109.98196,107.68501z" transform="translate(485.344383 -125.53478)" stroke-width="0" stroke-linejoin="miter" stroke-miterlimit="2" opacity="0.8"></path> <radialGradient id="f9e335d3-86d0-40d2-9b0c-3b6843bf4c79" cx="106.29267" cy="102.59158" r="11.68298" gradientUnits="userSpaceOnUse" transform="translate(485.344383 -125.53478)"> <stop offset="0.39174" style="stop-color:#000000;stop-opacity:0"></stop> <stop offset="0.61417" style="stop-color:#000000"></stop> </radialGradient> <path class="highlight" fill="url(#f9e335d3-86d0-40d2-9b0c-3b6843bf4c79)" d="M106.9587,96.02272c-0.42883,1.07428-1.40485,1.77112-2.08905,1.86932 c0.93134,0.63293,2.06897,0.90918,3.10211,0.75745c1.09119-0.16034,2.06537-0.78821,2.54504-1.59625 C110.51156,96.19453,108.97567,96.06422,106.9587,96.02272z" transform="translate(485.344383 -125.53478)" stroke-width="0" stroke-linejoin="miter" stroke-miterlimit="2" opacity="0.8"></path> <linearGradient id="3105e3aa-d3f3-47a5-b4d0-a991932b7964" gradientUnits="userSpaceOnUse" x1="90.74529" y1="136.74269" x2="111.42083" y2="62.7989"> <stop offset="0.11602" style="stop-color:#000000"></stop> <stop offset="0.18465" style="stop-color:#000000;stop-opacity:0.68377"></stop> <stop offset="0.33306" style="stop-color:#000000;stop-opacity:0"></stop> <stop offset="0.55583" style="stop-color:#000000;stop-opacity:0"></stop> <stop offset="0.85718" style="stop-color:#000000"></stop> </linearGradient> <path class="highlight" fill="url(#3105e3aa-d3f3-47a5-b4d0-a991932b7964)" d="M96.61856,117.36465c0.78029-3.34461,2.67632-8.36959,5.37777-16.03944 c0.6274-1.78127,1.27008-3.68611,1.8706-5.37897c0.71168-2.00625,1.3783-3.81953,1.86697-5.32665 c0.5465-1.68549,0.87443-2.98147,0.87443-3.60326c0-2.98911-3.36087-4.60955-6.50317-4.60955 c-0.87439,0-1.6185,0.07843-1.92354,0.29202c0.36259,1.51212-3.26337,12.09015-5.69545,19.44102 c-1.84597,5.57941-3.36899,10.37553-3.61875,14.14398c-0.113,1.705,0.05736,3.23476,0.53665,4.47013 c1.19967,3.0921,3.52924,4.78851,7.14259,4.78851c2.27103,0,4.95436-1.14711,6.06547-1.9952 c-2.78474,1.02271-5.90822-0.13825-6.31521-2.53934C96.27831,120.58461,96.29739,118.74129,96.61856,117.36465z" transform="translate(485.344383 -125.53478)" stroke-width="0" stroke-linejoin="miter" stroke-miterlimit="2" opacity="0.8"></path> <linearGradient id="f90e22e3-b8b5-42fa-8719-1c53518524bd" gradientUnits="userSpaceOnUse" x1="79.78149" y1="90.70139" x2="101.9445" y2="96.74051"> <stop offset="0.13489" style="stop-color:#000000"></stop> <stop offset="0.2318" style="stop-color:#000000;stop-opacity:0.68377"></stop> <stop offset="0.44136" style="stop-color:#000000;stop-opacity:0"></stop> <stop offset="0.52389" style="stop-color:#000000;stop-opacity:0"></stop> <stop offset="0.73846" style="stop-color:#000000"></stop> </linearGradient> <path class="highlight" fill="url(#f90e22e3-b8b5-42fa-8719-1c53518524bd)" d="M94.1567,97.10902c0.65308-1.9718,1.30829-3.97125,1.89868-5.84039 c-4.41895,0.43024-7.60657,0.40027-8.61151-0.21741c-1.22736,2.64294,0.00311,5.64429,2.15137,6.19104 C91.27639,97.67012,92.43691,97.46321,94.1567,97.10902z" transform="translate(485.344383 -125.53478)" stroke-width="0" stroke-linejoin="miter" stroke-miterlimit="2" opacity="0.8"></path> <linearGradient id="b07f7bb9-3800-487e-9b63-8125e4b58095" gradientUnits="userSpaceOnUse" x1="99.55219" y1="91.88721" x2="116.99529" y2="96.13805"> <stop offset="0.23644" style="stop-color:#000000"></stop> <stop offset="0.30985" style="stop-color:#000000;stop-opacity:0.68377"></stop> <stop offset="0.46859" style="stop-color:#000000;stop-opacity:0"></stop> <stop offset="0.73514" style="stop-color:#000000"></stop> </linearGradient> <path class="highlight" fill="url(#b07f7bb9-3800-487e-9b63-8125e4b58095)" d="M108.42556,91.06538c-0.69733-0.2373-1.6142-0.37946-2.69165-0.4458 c-0.48871,1.50714-1.15533,3.32037-1.867,5.32666c1.0647-0.00665,2.10071,0.01508,3.0918,0.07648 c2.01697,0.0415,3.55286,0.17181,3.55811,1.03052C111.71261,95.20076,111.27584,92.03535,108.42556,91.06538z" transform="translate(485.344383 -125.53478)" stroke-width="0" stroke-linejoin="miter" stroke-miterlimit="2" opacity="0.8"></path> </g>
            </g>
      <image xlink:href="" id="icon" style="display: none;" x="0" y="0"></image>
    </g>
  </g>
</svg>